CommissionerLoud-Thin.ufo
<glyph name="numbersign" format="2">
  <advance width="671"/>
  <unicode hex="0023"/>
  <outline>
    <contour>
      <point x="20" y="169" type="line"/>
      <point x="78" y="170"/>
      <point x="145" y="171"/>
      <point x="180" y="171" type="curve"/>
      <point x="430" y="171" type="line"/>
      <point x="465" y="171"/>
      <point x="532" y="170"/>
      <point x="590" y="169" type="curve"/>
      <point x="590" y="201" type="line"/>
      <point x="532" y="200"/>
      <point x="465" y="199"/>
      <point x="430" y="199" type="curve"/>
      <point x="180" y="199" type="line"/>
      <point x="145" y="199"/>
      <point x="78" y="200"/>
      <point x="20" y="201" type="curve"/>
    </contour>
    <contour>
      <point x="128" y="0" type="curve"/>
      <point x="163" y="0" type="line"/>
      <point x="177" y="67"/>
      <point x="189" y="125"/>
      <point x="206" y="209" type="curve"/>
      <point x="255" y="434" type="line"/>
      <point x="274" y="521"/>
      <point x="288" y="580"/>
      <point x="304" y="653" type="curve"/>
      <point x="269" y="653" type="line"/>
      <point x="255" y="583"/>
      <point x="243" y="524"/>
      <point x="224" y="436" type="curve"/>
      <point x="175" y="209" type="line"/>
      <point x="156" y="125"/>
      <point x="143" y="67"/>
    </contour>
    <contour>
      <point x="81" y="449" type="line"/>
      <point x="139" y="450"/>
      <point x="206" y="451"/>
      <point x="241" y="451" type="curve"/>
      <point x="491" y="451" type="line"/>
      <point x="526" y="451"/>
      <point x="593" y="450"/>
      <point x="651" y="449" type="curve"/>
      <point x="651" y="481" type="line"/>
      <point x="593" y="480"/>
      <point x="526" y="479"/>
      <point x="491" y="479" type="curve"/>
      <point x="241" y="479" type="line"/>
      <point x="206" y="479"/>
      <point x="139" y="480"/>
      <point x="81" y="481" type="curve"/>
    </contour>
    <contour>
      <point x="358" y="0" type="curve"/>
      <point x="393" y="0" type="line"/>
      <point x="407" y="67"/>
      <point x="419" y="125"/>
      <point x="436" y="209" type="curve"/>
      <point x="485" y="434" type="line"/>
      <point x="504" y="521"/>
      <point x="518" y="580"/>
      <point x="534" y="653" type="curve"/>
      <point x="499" y="653" type="line"/>
      <point x="485" y="583"/>
      <point x="473" y="524"/>
      <point x="454" y="436" type="curve"/>
      <point x="405" y="209" type="line"/>
      <point x="386" y="125"/>
      <point x="373" y="67"/>
    </contour>
  </outline>
</glyph>
<glyph name="quotesingle" format="2">
  <advance width="183"/>
  <unicode hex="0027"/>
  <outline>
    <contour>
      <point x="65" y="466" type="curve"/>
      <point x="91" y="467" type="line"/>
      <point x="91" y="560"/>
      <point x="97" y="653"/>
      <point x="103" y="744" type="curve"/>
      <point x="52" y="743" type="line"/>
      <point x="59" y="652"/>
      <point x="65" y="560"/>
    </contour>
  </outline>
</glyph>
<glyph name="parenleft" format="2">
  <advance width="364"/>
  <unicode hex="0028"/>
  <outline>
    <contour>
      <point x="282" y="-112" type="curve"/>
      <point x="315" y="-97" type="line"/>
      <point x="213" y="21"/>
      <point x="102" y="164"/>
      <point x="102" y="324" type="curve" smooth="yes"/>
      <point x="102" y="485"/>
      <point x="213" y="627"/>
      <point x="315" y="745" type="curve"/>
      <point x="282" y="760" type="line"/>
      <point x="184" y="637"/>
      <point x="70" y="493"/>
      <point x="70" y="324" type="curve" smooth="yes"/>
      <point x="70" y="156"/>
      <point x="184" y="11"/>
    </contour>
  </outline>
</glyph>
<glyph name="comma" format="2">
  <advance width="214"/>
  <unicode hex="002C"/>
  <outline>
    <contour>
      <point x="58" y="-157" type="curve"/>
      <point x="81" y="-156" type="line"/>
      <point x="109" y="-89"/>
      <point x="152" y="9"/>
      <point x="152" y="44" type="curve" smooth="yes"/>
      <point x="152" y="68"/>
      <point x="141" y="85"/>
      <point x="119" y="86" type="curve"/>
      <point x="93" y="85" type="line"/>
      <point x="94" y="61"/>
      <point x="96" y="37"/>
      <point x="97" y="13" type="curve"/>
      <point x="85" y="-44"/>
      <point x="73" y="-98"/>
    </contour>
  </outline>
</glyph>
<glyph name="slash" format="2">
  <advance width="438"/>
  <unicode hex="002F"/>
  <outline>
    <contour>
      <point x="38" y="0" type="curve"/>
      <point x="75" y="0" type="line"/>
      <point x="108" y="74"/>
      <point x="136" y="136"/>
      <point x="177" y="228" type="curve"/>
      <point x="289" y="474" type="line"/>
      <point x="333" y="569"/>
      <point x="363" y="633"/>
      <point x="400" y="713" type="curve"/>
      <point x="363" y="713" type="line"/>
      <point x="329" y="637"/>
      <point x="300" y="572"/>
      <point x="257" y="476" type="curve"/>
      <point x="144" y="228" type="line"/>
      <point x="101" y="136"/>
      <point x="72" y="73"/>
    </contour>
  </outline>
</glyph>
<glyph name="five" format="2">
  <advance width="568"/>
  <unicode hex="0035"/>
  <outline>
    <contour>
      <point x="272" y="-9" type="curve" smooth="yes"/>
      <point x="422" y="-9"/>
      <point x="508" y="81"/>
      <point x="508" y="217" type="curve" smooth="yes"/>
      <point x="508" y="365"/>
      <point x="406" y="433"/>
      <point x="285" y="433" type="curve" smooth="yes"/>
      <point x="230" y="433"/>
      <point x="175" y="410"/>
      <point x="132" y="391" type="curve"/>
      <point x="126" y="391" type="line"/>
      <point x="126" y="447" type="line"/>
      <point x="126" y="510"/>
      <point x="127" y="594"/>
      <point x="127" y="668" type="curve"/>
      <point x="113" y="654" type="line"/>
      <point x="217" y="654" type="line"/>
      <point x="298" y="653"/>
      <point x="381" y="652"/>
      <point x="463" y="651" type="curve"/>
      <point x="463" y="684" type="line"/>
      <point x="93" y="684" type="line"/>
      <point x="94" y="612"/>
      <point x="95" y="532"/>
      <point x="96" y="447" type="curve"/>
      <point x="96" y="346" type="line"/>
      <point x="112" y="344" type="line"/>
      <point x="172" y="381"/>
      <point x="242" y="401"/>
      <point x="285" y="401" type="curve"/>
      <point x="389" y="400"/>
      <point x="477" y="353"/>
      <point x="477" y="217" type="curve" smooth="yes"/>
      <point x="477" y="95"/>
      <point x="408" y="24"/>
      <point x="272" y="23" type="curve"/>
      <point x="222" y="23"/>
      <point x="145" y="50"/>
      <point x="56" y="85" type="curve"/>
      <point x="50" y="49" type="line"/>
      <point x="131" y="20"/>
      <point x="222" y="-9"/>
    </contour>
  </outline>
</glyph>
<glyph name="six" format="2">
  <advance width="599"/>
  <unicode hex="0036"/>
  <outline>
    <contour>
      <point x="312" y="-9" type="curve" smooth="yes"/>
      <point x="460" y="-9"/>
      <point x="539" y="102"/>
      <point x="539" y="221" type="curve" smooth="yes"/>
      <point x="539" y="344"/>
      <point x="457" y="435"/>
      <point x="318" y="435" type="curve" smooth="yes"/>
      <point x="240" y="435"/>
      <point x="165" y="387"/>
      <point x="104" y="346" type="curve"/>
      <point x="92" y="347" type="line"/>
      <point x="90" y="333"/>
      <point x="90" y="315"/>
      <point x="92" y="294" type="curve"/>
      <point x="170" y="365"/>
      <point x="261" y="402"/>
      <point x="318" y="403" type="curve"/>
      <point x="451" y="402"/>
      <point x="508" y="321"/>
      <point x="508" y="221" type="curve" smooth="yes"/>
      <point x="508" y="121"/>
      <point x="450" y="25"/>
      <point x="312" y="23" type="curve"/>
      <point x="170" y="25"/>
      <point x="96" y="128"/>
      <point x="96" y="321" type="curve" smooth="yes"/>
      <point x="96" y="541"/>
      <point x="167" y="662"/>
      <point x="319" y="664" type="curve"/>
      <point x="341" y="664"/>
      <point x="419" y="639"/>
      <point x="493" y="607" type="curve"/>
      <point x="500" y="643" type="line"/>
      <point x="456" y="661"/>
      <point x="356" y="696"/>
      <point x="319" y="696" type="curve" smooth="yes"/>
      <point x="148" y="696"/>
      <point x="65" y="554"/>
      <point x="65" y="322" type="curve" smooth="yes"/>
      <point x="65" y="109"/>
      <point x="156" y="-9"/>
    </contour>
  </outline>
</glyph>
<glyph name="greater" format="2">
  <advance width="560"/>
  <unicode hex="003E"/>
  <outline>
    <contour>
      <point x="70" y="86" type="line"/>
      <point x="128" y="113"/>
      <point x="186" y="140"/>
      <point x="231" y="161" type="curve"/>
      <point x="331" y="206" type="line"/>
      <point x="379" y="227"/>
      <point x="433" y="251"/>
      <point x="490" y="276" type="curve"/>
      <point x="490" y="312" type="line"/>
      <point x="433" y="336"/>
      <point x="377" y="361"/>
      <point x="331" y="382" type="curve"/>
      <point x="231" y="427" type="line"/>
      <point x="184" y="449"/>
      <point x="126" y="476"/>
      <point x="70" y="502" type="curve"/>
      <point x="70" y="463" type="line"/>
      <point x="149" y="429"/>
      <point x="236" y="391"/>
      <point x="317" y="356" type="curve"/>
      <point x="448" y="297" type="line"/>
      <point x="448" y="291" type="line"/>
      <point x="317" y="232" type="line"/>
      <point x="236" y="197"/>
      <point x="149" y="159"/>
      <point x="70" y="125" type="curve"/>
    </contour>
  </outline>
</glyph>
<glyph name="C" format="2">
  <advance width="686"/>
  <unicode hex="0043"/>
  <anchor x="401" y="0" name="bottom"/>
  <anchor x="391" y="713" name="top"/>
  <outline>
    <contour>
      <point x="417" y="-9" type="curve" smooth="yes"/>
      <point x="465" y="-9"/>
      <point x="563" y="20"/>
      <point x="625" y="43" type="curve"/>
      <point x="619" y="82" type="line"/>
      <point x="545" y="48"/>
      <point x="448" y="24"/>
      <point x="415" y="24" type="curve"/>
      <point x="204" y="27"/>
      <point x="93" y="173"/>
      <point x="93" y="358" type="curve" smooth="yes"/>
      <point x="93" y="560"/>
      <point x="221" y="689"/>
      <point x="402" y="692" type="curve"/>
      <point x="430" y="692"/>
      <point x="530" y="665"/>
      <point x="626" y="631" type="curve"/>
      <point x="631" y="669" type="line"/>
      <point x="573" y="687"/>
      <point x="450" y="725"/>
      <point x="403" y="725" type="curve" smooth="yes"/>
      <point x="207" y="725"/>
      <point x="60" y="576"/>
      <point x="60" y="359" type="curve" smooth="yes"/>
      <point x="60" y="153"/>
      <point x="195" y="-9"/>
    </contour>
  </outline>
</glyph>
<glyph name="F" format="2">
  <advance width="571"/>
  <unicode hex="0046"/>
  <outline>
    <contour>
      <point x="108" y="0" type="curve"/>
      <point x="145" y="0" type="line"/>
      <point x="144" y="81"/>
      <point x="143" y="151"/>
      <point x="142" y="238" type="curve"/>
      <point x="142" y="472" type="line"/>
      <point x="143" y="559"/>
      <point x="144" y="629"/>
      <point x="145" y="710" type="curve"/>
      <point x="145" y="713" type="line"/>
      <point x="108" y="713" type="line"/>
      <point x="109" y="632"/>
      <point x="109" y="562"/>
      <point x="110" y="475" type="curve"/>
      <point x="110" y="238" type="line"/>
      <point x="109" y="151"/>
      <point x="109" y="81"/>
    </contour>
    <contour>
      <point x="136" y="347" type="line"/>
      <point x="270" y="347" type="line"/>
      <point x="364" y="347"/>
      <point x="427" y="346"/>
      <point x="496" y="346" type="curve"/>
      <point x="496" y="381" type="line"/>
      <point x="431" y="380"/>
      <point x="366" y="379"/>
      <point x="271" y="378" type="curve"/>
      <point x="136" y="378" type="line"/>
    </contour>
    <contour>
      <point x="136" y="682" type="line"/>
      <point x="262" y="682" type="line"/>
      <point x="372" y="681"/>
      <point x="448" y="679"/>
      <point x="519" y="678" type="curve"/>
      <point x="519" y="713" type="line"/>
      <point x="136" y="713" type="line"/>
    </contour>
  </outline>
</glyph>
<glyph name="G" format="2">
  <advance width="737"/>
  <unicode hex="0047"/>
  <anchor x="401" y="0" name="bottom"/>
  <anchor x="401" y="713" name="top"/>
  <outline>
    <contour>
      <point x="436" y="-9" type="curve" smooth="yes"/>
      <point x="488" y="-9"/>
      <point x="593" y="16"/>
      <point x="660" y="35" type="curve"/>
      <point x="654" y="74" type="line"/>
      <point x="575" y="44"/>
      <point x="471" y="24"/>
      <point x="436" y="24" type="curve"/>
      <point x="197" y="27"/>
      <point x="93" y="170"/>
      <point x="93" y="359" type="curve" smooth="yes"/>
      <point x="93" y="562"/>
      <point x="220" y="689"/>
      <point x="408" y="692" type="curve" smooth="yes"/>
      <point x="437" y="692"/>
      <point x="540" y="665"/>
      <point x="640" y="631" type="curve"/>
      <point x="645" y="669" type="line"/>
      <point x="585" y="687"/>
      <point x="457" y="725"/>
      <point x="408" y="725" type="curve" smooth="yes"/>
      <point x="202" y="725"/>
      <point x="60" y="572"/>
      <point x="60" y="359" type="curve" smooth="yes"/>
      <point x="60" y="153"/>
      <point x="187" y="-9"/>
    </contour>
    <contour>
      <point x="624" y="35" type="curve"/>
      <point x="660" y="35" type="line"/>
      <point x="659" y="103"/>
      <point x="659" y="150"/>
      <point x="658" y="200" type="curve"/>
      <point x="659" y="260"/>
      <point x="659" y="302"/>
      <point x="660" y="349" type="curve"/>
      <point x="623" y="349" type="line"/>
      <point x="624" y="302"/>
      <point x="625" y="260"/>
      <point x="626" y="200" type="curve"/>
      <point x="625" y="150"/>
      <point x="625" y="103"/>
    </contour>
  </outline>
</glyph>
<glyph name="I" format="2">
  <advance width="253"/>
  <unicode hex="0049"/>
  <anchor x="126" y="0" name="bottom"/>
  <anchor x="145" y="0" name="ogonek"/>
  <anchor x="126" y="713" name="top"/>
  <anchor x="37" y="713" name="topleft"/>
  <outline>
    <contour>
      <point x="108" y="0" type="curve"/>
      <point x="145" y="0" type="line"/>
      <point x="144" y="81"/>
      <point x="143" y="151"/>
      <point x="142" y="238" type="curve"/>
      <point x="142" y="475" type="line"/>
      <point x="143" y="562"/>
      <point x="144" y="632"/>
      <point x="145" y="713" type="curve"/>
      <point x="108" y="713" type="line"/>
      <point x="109" y="632"/>
      <point x="109" y="562"/>
      <point x="110" y="475" type="curve"/>
      <point x="110" y="238" type="line"/>
      <point x="109" y="151"/>
      <point x="109" y="81"/>
    </contour>
  </outline>
</glyph>
<glyph name="J" format="2">
  <advance width="271"/>
  <unicode hex="004A"/>
  <anchor x="143" y="0" name="bottom"/>
  <anchor x="143" y="713" name="top"/>
  <outline>
    <contour>
      <point x="32" y="-160" type="curve"/>
      <point x="72" y="-160" type="line"/>
      <point x="98" y="-108"/>
      <point x="161" y="19"/>
      <point x="161" y="35" type="curve" smooth="yes"/>
      <point x="161" y="112"/>
      <point x="160" y="192"/>
      <point x="160" y="269" type="curve"/>
      <point x="160" y="475" type="line"/>
      <point x="160" y="562"/>
      <point x="160" y="632"/>
      <point x="163" y="713" type="curve"/>
      <point x="126" y="713" type="line"/>
      <point x="128" y="632"/>
      <point x="128" y="562"/>
      <point x="128" y="475" type="curve"/>
      <point x="128" y="238" type="line"/>
      <point x="126" y="29" type="line"/>
      <point x="92" y="-40"/>
      <point x="62" y="-100"/>
    </contour>
  </outline>
</glyph>
<glyph name="K" format="2">
  <advance width="647"/>
  <unicode hex="004B"/>
  <anchor x="332" y="0" name="bottom"/>
  <anchor x="332" y="713" name="top"/>
  <outline>
    <contour>
      <point x="561" y="0" type="curve"/>
      <point x="616" y="0" type="line"/>
      <point x="549" y="59"/>
      <point x="444" y="152"/>
      <point x="365" y="222" type="curve"/>
      <point x="197" y="374" type="line"/>
      <point x="197" y="360" type="line"/>
      <point x="347" y="495" type="line"/>
      <point x="427" y="566"/>
      <point x="508" y="637"/>
      <point x="594" y="713" type="curve"/>
      <point x="540" y="713" type="line"/>
      <point x="452" y="633"/>
      <point x="391" y="578"/>
      <point x="323" y="516" type="curve"/>
      <point x="176" y="383" type="line"/>
      <point x="134" y="383" type="line"/>
      <point x="134" y="352" type="line"/>
      <point x="175" y="352" type="line"/>
      <point x="347" y="196" type="line"/>
      <point x="413" y="136"/>
      <point x="480" y="74"/>
    </contour>
    <contour>
      <point x="108" y="0" type="curve"/>
      <point x="145" y="0" type="line"/>
      <point x="144" y="81"/>
      <point x="143" y="151"/>
      <point x="142" y="238" type="curve"/>
      <point x="142" y="475" type="line"/>
      <point x="143" y="562"/>
      <point x="144" y="632"/>
      <point x="145" y="713" type="curve"/>
      <point x="108" y="713" type="line"/>
      <point x="109" y="632"/>
      <point x="109" y="562"/>
      <point x="110" y="475" type="curve"/>
      <point x="110" y="238" type="line"/>
      <point x="109" y="151"/>
      <point x="109" y="81"/>
    </contour>
  </outline>
</glyph>
<glyph name="L" format="2">
  <advance width="566"/>
  <unicode hex="004C"/>
  <anchor x="319" y="0" name="bottom"/>
  <anchor x="412" y="357" name="center"/>
  <anchor x="182" y="713" name="top"/>
  <anchor x="268" y="494" name="topright"/>
  <outline>
    <contour>
      <point x="108" y="0" type="curve"/>
      <point x="145" y="0" type="line"/>
      <point x="145" y="3" type="line"/>
      <point x="144" y="84"/>
      <point x="143" y="154"/>
      <point x="142" y="241" type="curve"/>
      <point x="142" y="475" type="line"/>
      <point x="143" y="562"/>
      <point x="144" y="632"/>
      <point x="145" y="713" type="curve"/>
      <point x="108" y="713" type="line"/>
      <point x="109" y="632"/>
      <point x="109" y="562"/>
      <point x="110" y="475" type="curve"/>
      <point x="110" y="238" type="line"/>
      <point x="109" y="151"/>
      <point x="109" y="81"/>
    </contour>
    <contour>
      <point x="136" y="0" type="line"/>
      <point x="528" y="0" type="line"/>
      <point x="528" y="35" type="line"/>
      <point x="444" y="34"/>
      <point x="373" y="33"/>
      <point x="250" y="31" type="curve"/>
      <point x="136" y="31" type="line"/>
    </contour>
  </outline>
</glyph>
<glyph name="S" format="2">
  <advance width="575"/>
  <unicode hex="0053"/>
  <anchor x="293" y="0" name="bottom"/>
  <anchor x="293" y="713" name="top"/>
  <outline>
    <contour>
      <point x="302" y="-9" type="curve" smooth="yes"/>
      <point x="458" y="-9"/>
      <point x="527" y="80"/>
      <point x="527" y="185" type="curve" smooth="yes"/>
      <point x="527" y="278"/>
      <point x="473" y="326"/>
      <point x="301" y="383" type="curve" smooth="yes"/>
      <point x="159" y="430"/>
      <point x="99" y="462"/>
      <point x="99" y="545" type="curve" smooth="yes"/>
      <point x="99" y="649"/>
      <point x="185" y="690"/>
      <point x="282" y="692" type="curve"/>
      <point x="305" y="692"/>
      <point x="395" y="665"/>
      <point x="476" y="634" type="curve"/>
      <point x="481" y="672" type="line"/>
      <point x="430" y="689"/>
      <point x="324" y="725"/>
      <point x="285" y="725" type="curve" smooth="yes"/>
      <point x="144" y="725"/>
      <point x="66" y="645"/>
      <point x="66" y="545" type="curve" smooth="yes"/>
      <point x="66" y="444"/>
      <point x="146" y="400"/>
      <point x="287" y="354" type="curve" smooth="yes"/>
      <point x="420" y="311"/>
      <point x="494" y="276"/>
      <point x="494" y="185" type="curve" smooth="yes"/>
      <point x="494" y="66"/>
      <point x="408" y="26"/>
      <point x="302" y="24" type="curve"/>
      <point x="251" y="24"/>
      <point x="172" y="48"/>
      <point x="80" y="79" type="curve"/>
      <point x="74" y="42" type="line"/>
      <point x="157" y="16"/>
      <point x="251" y="-9"/>
    </contour>
  </outline>
</glyph>
<glyph name="V" format="2">
  <advance width="668"/>
  <unicode hex="0056"/>
  <anchor x="335" y="0" name="bottom"/>
  <anchor x="335" y="713" name="top"/>
  <outline>
    <contour>
      <point x="310" y="0" type="curve"/>
      <point x="362" y="0" type="line"/>
      <point x="390" y="74"/>
      <point x="421" y="156"/>
      <point x="447" y="225" type="curve"/>
      <point x="534" y="450" type="line"/>
      <point x="565" y="527"/>
      <point x="604" y="626"/>
      <point x="639" y="713" type="curve"/>
      <point x="598" y="713" type="line"/>
      <point x="554" y="597"/>
      <point x="507" y="471"/>
      <point x="464" y="357" type="curve"/>
      <point x="339" y="36" type="line"/>
      <point x="333" y="36" type="line"/>
      <point x="207" y="356" type="line"/>
      <point x="164" y="468"/>
      <point x="113" y="601"/>
      <point x="70" y="713" type="curve"/>
      <point x="28" y="713" type="line"/>
      <point x="63" y="627"/>
      <point x="104" y="526"/>
      <point x="135" y="450" type="curve"/>
      <point x="224" y="226" type="line"/>
      <point x="250" y="158"/>
      <point x="284" y="69"/>
    </contour>
  </outline>
</glyph>
<glyph name="W" format="2">
  <advance width="999"/>
  <unicode hex="0057"/>
  <anchor x="499" y="0" name="bottom"/>
  <anchor x="499" y="713" name="top"/>
  <outline>
    <contour>
      <point x="246" y="0" type="curve"/>
      <point x="304" y="0" type="line"/>
      <point x="334" y="108"/>
      <point x="372" y="243"/>
      <point x="403" y="353" type="curve"/>
      <point x="496" y="672" type="line"/>
      <point x="502" y="672" type="line"/>
      <point x="596" y="353" type="line"/>
      <point x="627" y="243"/>
      <point x="665" y="111"/>
      <point x="696" y="0" type="curve"/>
      <point x="754" y="0" type="line"/>
      <point x="773" y="67"/>
      <point x="798" y="154"/>
      <point x="819" y="226" type="curve"/>
      <point x="888" y="450" type="line"/>
      <point x="913" y="529"/>
      <point x="944" y="626"/>
      <point x="972" y="713" type="curve"/>
      <point x="931" y="713" type="line"/>
      <point x="898" y="601"/>
      <point x="859" y="469"/>
      <point x="826" y="358" type="curve"/>
      <point x="728" y="37" type="line"/>
      <point x="722" y="37" type="line"/>
      <point x="628" y="357" type="line"/>
      <point x="595" y="471"/>
      <point x="559" y="599"/>
      <point x="526" y="713" type="curve"/>
      <point x="471" y="713" type="line"/>
      <point x="440" y="602"/>
      <point x="402" y="467"/>
      <point x="371" y="358" type="curve"/>
      <point x="278" y="37" type="line"/>
      <point x="272" y="37" type="line"/>
      <point x="175" y="355" type="line"/>
      <point x="141" y="470"/>
      <point x="103" y="598"/>
      <point x="69" y="713" type="curve"/>
      <point x="28" y="713" type="line"/>
      <point x="55" y="628"/>
      <point x="88" y="526"/>
      <point x="113" y="448" type="curve"/>
      <point x="181" y="225" type="line"/>
      <point x="201" y="156"/>
      <point x="225" y="71"/>
    </contour>
  </outline>
</glyph>
<glyph name="Z" format="2">
  <advance width="659"/>
  <unicode hex="005A"/>
  <anchor x="330" y="0" name="bottom"/>
  <anchor x="330" y="357" name="center"/>
  <anchor x="330" y="713" name="top"/>
  <outline>
    <contour>
      <point x="55" y="0" type="line"/>
      <point x="599" y="0" type="line"/>
      <point x="599" y="36" type="line"/>
      <point x="511" y="35"/>
      <point x="368" y="33"/>
      <point x="270" y="31" type="curve"/>
      <point x="66" y="31" type="line"/>
      <point x="80" y="5" type="line"/>
      <point x="396" y="420" type="line"/>
      <point x="463" y="507"/>
      <point x="529" y="594"/>
      <point x="596" y="681" type="curve"/>
      <point x="596" y="713" type="line"/>
      <point x="61" y="713" type="line"/>
      <point x="61" y="678" type="line"/>
      <point x="172" y="679"/>
      <point x="276" y="681"/>
      <point x="368" y="682" type="curve"/>
      <point x="591" y="682" type="line"/>
      <point x="568" y="700" type="line"/>
      <point x="273" y="311" type="line"/>
      <point x="207" y="225"/>
      <point x="114" y="105"/>
      <point x="55" y="28" type="curve"/>
    </contour>
  </outline>
</glyph>
<glyph name="underscore" format="2">
  <advance width="380"/>
  <unicode hex="005F"/>
  <outline>
    <contour>
      <point x="-10" y="-90" type="line"/>
      <point x="48" y="-89"/>
      <point x="115" y="-88"/>
      <point x="150" y="-88" type="curve"/>
      <point x="230" y="-88" type="line"/>
      <point x="265" y="-88"/>
      <point x="332" y="-89"/>
      <point x="390" y="-90" type="curve"/>
      <point x="390" y="-58" type="line"/>
      <point x="332" y="-59"/>
      <point x="265" y="-60"/>
      <point x="230" y="-60" type="curve"/>
      <point x="150" y="-60" type="line"/>
      <point x="115" y="-60"/>
      <point x="48" y="-59"/>
      <point x="-10" y="-58" type="curve"/>
    </contour>
  </outline>
</glyph>
<glyph name="b" format="2">
  <advance width="590"/>
  <unicode hex="0062"/>
  <outline>
    <contour>
      <point x="307" y="-9" type="curve" smooth="yes"/>
      <point x="453" y="-9"/>
      <point x="528" y="110"/>
      <point x="528" y="249" type="curve" smooth="yes"/>
      <point x="528" y="396"/>
      <point x="444" y="504"/>
      <point x="305" y="504" type="curve" smooth="yes"/>
      <point x="245" y="504"/>
      <point x="187" y="464"/>
      <point x="140" y="430" type="curve"/>
      <point x="134" y="430" type="line"/>
      <point x="134" y="494" type="line"/>
      <point x="135" y="579"/>
      <point x="136" y="658"/>
      <point x="137" y="740" type="curve"/>
      <point x="98" y="729" type="line"/>
      <point x="100" y="657"/>
      <point x="102" y="579"/>
      <point x="104" y="494" type="curve"/>
      <point x="104" y="221" type="line"/>
      <point x="103" y="140"/>
      <point x="103" y="75"/>
      <point x="102" y="0" type="curve"/>
      <point x="130" y="0" type="line"/>
      <point x="133" y="71" type="line"/>
      <point x="139" y="71" type="line"/>
      <point x="189" y="29"/>
      <point x="259" y="-9"/>
    </contour>
    <contour>
      <point x="307" y="23" type="curve"/>
      <point x="252" y="25"/>
      <point x="183" y="69"/>
      <point x="134" y="116" type="curve"/>
      <point x="134" y="384" type="line"/>
      <point x="193" y="441"/>
      <point x="262" y="471"/>
      <point x="305" y="472" type="curve"/>
      <point x="436" y="469"/>
      <point x="497" y="372"/>
      <point x="497" y="249" type="curve" smooth="yes"/>
      <point x="497" y="131"/>
      <point x="441" y="26"/>
    </contour>
  </outline>
</glyph>
<glyph name="d" format="2">
  <advance width="572"/>
  <unicode hex="0064"/>
  <anchor x="306" y="0" name="bottom"/>
  <anchor x="289" y="247" name="center"/>
  <anchor x="306" y="723" name="top"/>
  <anchor x="545" y="494" name="topright"/>
  <outline>
    <contour>
      <point x="283" y="-9" type="curve" smooth="yes"/>
      <point x="331" y="-9"/>
      <point x="401" y="29"/>
      <point x="451" y="71" type="curve"/>
      <point x="457" y="71" type="line"/>
      <point x="459" y="0" type="line"/>
      <point x="489" y="0" type="line"/>
      <point x="488" y="75"/>
      <point x="487" y="140"/>
      <point x="486" y="221" type="curve"/>
      <point x="486" y="494" type="line"/>
      <point x="487" y="579"/>
      <point x="488" y="658"/>
      <point x="489" y="740" type="curve"/>
      <point x="450" y="729" type="line"/>
      <point x="452" y="657"/>
      <point x="454" y="579"/>
      <point x="456" y="494" type="curve"/>
      <point x="456" y="430" type="line"/>
      <point x="450" y="430" type="line"/>
      <point x="403" y="464"/>
      <point x="345" y="504"/>
      <point x="285" y="504" type="curve" smooth="yes"/>
      <point x="146" y="504"/>
      <point x="62" y="396"/>
      <point x="62" y="249" type="curve" smooth="yes"/>
      <point x="62" y="110"/>
      <point x="137" y="-9"/>
    </contour>
    <contour>
      <point x="283" y="23" type="curve"/>
      <point x="149" y="26"/>
      <point x="93" y="131"/>
      <point x="93" y="249" type="curve" smooth="yes"/>
      <point x="93" y="372"/>
      <point x="154" y="469"/>
      <point x="285" y="472" type="curve"/>
      <point x="328" y="471"/>
      <point x="397" y="441"/>
      <point x="456" y="384" type="curve"/>
      <point x="456" y="116" type="line"/>
      <point x="407" y="69"/>
      <point x="338" y="25"/>
    </contour>
  </outline>
</glyph>
<glyph name="g" format="2">
  <advance width="536"/>
  <unicode hex="0067"/>
  <anchor x="266" y="-192" name="bottom"/>
  <anchor x="249" y="494" name="top"/>
  <outline>
    <contour>
      <point x="247" y="-202" type="curve" smooth="yes"/>
      <point x="353" y="-202"/>
      <point x="478" y="-145"/>
      <point x="478" y="-46" type="curve" smooth="yes"/>
      <point x="478" y="24"/>
      <point x="428" y="55"/>
      <point x="281" y="55" type="curve" smooth="yes"/>
      <point x="258" y="55" type="line" smooth="yes"/>
      <point x="172" y="55"/>
      <point x="139" y="67"/>
      <point x="139" y="106" type="curve" smooth="yes"/>
      <point x="139" y="144"/>
      <point x="176" y="157"/>
      <point x="259" y="177" type="curve" smooth="yes"/>
      <point x="361" y="202"/>
      <point x="420" y="247"/>
      <point x="420" y="342" type="curve" smooth="yes"/>
      <point x="420" y="400"/>
      <point x="392" y="453"/>
      <point x="321" y="482" type="curve"/>
      <point x="310" y="470" type="line"/>
      <point x="377" y="467"/>
      <point x="444" y="465"/>
      <point x="513" y="462" type="curve"/>
      <point x="513" y="494" type="line"/>
      <point x="345" y="494" type="line" smooth="yes"/>
      <point x="299" y="494"/>
      <point x="280" y="504"/>
      <point x="239" y="504" type="curve" smooth="yes"/>
      <point x="141" y="504"/>
      <point x="60" y="444"/>
      <point x="60" y="346" type="curve" smooth="yes"/>
      <point x="60" y="265"/>
      <point x="147" y="211"/>
      <point x="187" y="190" type="curve"/>
      <point x="187" y="185" type="line"/>
      <point x="135" y="171"/>
      <point x="108" y="145"/>
      <point x="108" y="106" type="curve" smooth="yes"/>
      <point x="108" y="61"/>
      <point x="141" y="42"/>
      <point x="164" y="36" type="curve"/>
      <point x="164" y="31" type="line"/>
      <point x="120" y="9"/>
      <point x="62" y="-35"/>
      <point x="62" y="-83" type="curve" smooth="yes"/>
      <point x="62" y="-139"/>
      <point x="102" y="-202"/>
    </contour>
    <contour>
      <point x="245" y="-170" type="curve"/>
      <point x="127" y="-168"/>
      <point x="93" y="-129"/>
      <point x="93" y="-82" type="curve" smooth="yes"/>
      <point x="93" y="-42"/>
      <point x="163" y="5"/>
      <point x="219" y="24" type="curve"/>
      <point x="282" y="24" type="line" smooth="yes"/>
      <point x="416" y="24"/>
      <point x="447" y="4"/>
      <point x="447" y="-48" type="curve" smooth="yes"/>
      <point x="447" y="-102"/>
      <point x="377" y="-168"/>
    </contour>
    <contour>
      <point x="231" y="200" type="curve"/>
      <point x="163" y="230"/>
      <point x="91" y="281"/>
      <point x="91" y="346" type="curve" smooth="yes"/>
      <point x="91" y="434"/>
      <point x="159" y="471"/>
      <point x="242" y="472" type="curve"/>
      <point x="303" y="469"/>
      <point x="389" y="436"/>
      <point x="389" y="342" type="curve" smooth="yes"/>
      <point x="389" y="235"/>
      <point x="296" y="214"/>
    </contour>
  </outline>
</glyph>
<glyph name="p" format="2">
  <advance width="596"/>
  <unicode hex="0070"/>
  <outline>
    <contour>
      <point x="107" y="-194" type="curve"/>
      <point x="143" y="-192" type="line"/>
      <point x="142" y="-117"/>
      <point x="141" y="-52"/>
      <point x="140" y="29" type="curve"/>
      <point x="140" y="71" type="line"/>
      <point x="146" y="71" type="line"/>
      <point x="196" y="29"/>
      <point x="265" y="-9"/>
      <point x="313" y="-9" type="curve" smooth="yes"/>
      <point x="459" y="-9"/>
      <point x="534" y="110"/>
      <point x="534" y="249" type="curve" smooth="yes"/>
      <point x="534" y="396"/>
      <point x="450" y="504"/>
      <point x="311" y="504" type="curve" smooth="yes"/>
      <point x="251" y="504"/>
      <point x="191" y="463"/>
      <point x="144" y="428" type="curve"/>
      <point x="138" y="428" type="line"/>
      <point x="134" y="497" type="line"/>
      <point x="101" y="494" type="line"/>
      <point x="104" y="443"/>
      <point x="108" y="390"/>
      <point x="110" y="342" type="curve"/>
      <point x="110" y="29" type="line"/>
      <point x="109" y="-52"/>
      <point x="108" y="-119"/>
    </contour>
    <contour>
      <point x="313" y="23" type="curve"/>
      <point x="258" y="25"/>
      <point x="189" y="69"/>
      <point x="140" y="116" type="curve"/>
      <point x="140" y="384" type="line"/>
      <point x="199" y="441"/>
      <point x="268" y="471"/>
      <point x="311" y="472" type="curve"/>
      <point x="442" y="469"/>
      <point x="503" y="372"/>
      <point x="503" y="249" type="curve" smooth="yes"/>
      <point x="503" y="131"/>
      <point x="447" y="26"/>
    </contour>
  </outline>
</glyph>
<glyph name="r" format="2">
  <advance width="394"/>
  <unicode hex="0072"/>
  <anchor x="120" y="0" name="bottom"/>
  <anchor x="232" y="494" name="top"/>
  <outline>
    <contour>
      <point x="108" y="0" type="curve"/>
      <point x="143" y="0" type="line"/>
      <point x="142" y="75"/>
      <point x="141" y="140"/>
      <point x="140" y="221" type="curve"/>
      <point x="140" y="338" type="line"/>
      <point x="229" y="441"/>
      <point x="271" y="472"/>
      <point x="306" y="472" type="curve" smooth="yes"/>
      <point x="313" y="472"/>
      <point x="336" y="466"/>
      <point x="361" y="460" type="curve"/>
      <point x="364" y="497" type="line"/>
      <point x="346" y="500"/>
      <point x="316" y="504"/>
      <point x="305" y="504" type="curve" smooth="yes"/>
      <point x="267" y="504"/>
      <point x="217" y="472"/>
      <point x="143" y="386" type="curve"/>
      <point x="138" y="386" type="line"/>
      <point x="133" y="497" type="line"/>
      <point x="101" y="494" type="line"/>
      <point x="104" y="443"/>
      <point x="108" y="390"/>
      <point x="110" y="342" type="curve"/>
      <point x="110" y="221" type="line"/>
      <point x="109" y="140"/>
      <point x="109" y="75"/>
    </contour>
  </outline>
</glyph>
<glyph name="s" format="2">
  <advance width="446"/>
  <unicode hex="0073"/>
  <anchor x="222" y="0" name="bottom"/>
  <anchor x="222" y="494" name="top"/>
  <outline>
    <contour>
      <point x="229" y="-9" type="curve" smooth="yes"/>
      <point x="341" y="-9"/>
      <point x="389" y="56"/>
      <point x="389" y="130" type="curve" smooth="yes"/>
      <point x="389" y="217"/>
      <point x="322" y="240"/>
      <point x="230" y="268" type="curve" smooth="yes"/>
      <point x="140" y="295"/>
      <point x="104" y="317"/>
      <point x="104" y="374" type="curve" smooth="yes"/>
      <point x="104" y="458"/>
      <point x="175" y="470"/>
      <point x="220" y="472" type="curve"/>
      <point x="236" y="472"/>
      <point x="297" y="453"/>
      <point x="354" y="431" type="curve"/>
      <point x="358" y="467" type="line"/>
      <point x="322" y="479"/>
      <point x="248" y="504"/>
      <point x="220" y="504" type="curve" smooth="yes"/>
      <point x="129" y="504"/>
      <point x="73" y="451"/>
      <point x="73" y="375" type="curve" smooth="yes"/>
      <point x="73" y="293"/>
      <point x="139" y="265"/>
      <point x="210" y="243" type="curve" smooth="yes"/>
      <point x="321" y="209"/>
      <point x="358" y="190"/>
      <point x="358" y="133" type="curve" smooth="yes"/>
      <point x="358" y="46"/>
      <point x="299" y="25"/>
      <point x="229" y="23" type="curve"/>
      <point x="193" y="23"/>
      <point x="137" y="42"/>
      <point x="72" y="66" type="curve"/>
      <point x="67" y="30" type="line"/>
      <point x="126" y="10"/>
      <point x="193" y="-9"/>
    </contour>
  </outline>
</glyph>
<glyph name="u" format="2">
  <advance width="549"/>
  <unicode hex="0075"/>
  <anchor x="275" y="0" name="bottom"/>
  <anchor x="462" y="0" name="ogonek"/>
  <anchor x="275" y="494" name="top"/>
  <anchor x="518" y="494" name="topright"/>
  <outline>
    <contour>
      <point x="242" y="-9" type="curve" smooth="yes"/>
      <point x="297" y="-9"/>
      <point x="382" y="58"/>
      <point x="423" y="96" type="curve"/>
      <point x="429" y="96" type="line"/>
      <point x="432" y="0" type="line"/>
      <point x="462" y="0" type="line"/>
      <point x="461" y="75"/>
      <point x="460" y="140"/>
      <point x="459" y="221" type="curve"/>
      <point x="459" y="271" type="line"/>
      <point x="460" y="353"/>
      <point x="461" y="418"/>
      <point x="462" y="494" type="curve"/>
      <point x="426" y="494" type="line"/>
      <point x="427" y="419"/>
      <point x="428" y="353"/>
      <point x="429" y="271" type="curve"/>
      <point x="429" y="144" type="line"/>
      <point x="361" y="74"/>
      <point x="281" y="23"/>
      <point x="243" y="23" type="curve" smooth="yes"/>
      <point x="150" y="23"/>
      <point x="120" y="73"/>
      <point x="120" y="169" type="curve"/>
      <point x="120" y="271" type="line"/>
      <point x="121" y="354"/>
      <point x="122" y="420"/>
      <point x="123" y="496" type="curve"/>
      <point x="87" y="494" type="line"/>
      <point x="88" y="419"/>
      <point x="89" y="353"/>
      <point x="90" y="271" type="curve"/>
      <point x="90" y="242"/>
      <point x="89" y="212"/>
      <point x="89" y="169" type="curve" smooth="yes"/>
      <point x="89" y="55"/>
      <point x="131" y="-9"/>
    </contour>
  </outline>
</glyph>
<glyph name="v" format="2">
  <advance width="496"/>
  <unicode hex="0076"/>
  <outline>
    <contour>
      <point x="225" y="0" type="curve"/>
      <point x="269" y="0" type="line"/>
      <point x="293" y="62"/>
      <point x="316" y="123"/>
      <point x="339" y="185" type="curve"/>
      <point x="373" y="273" type="line"/>
      <point x="403" y="346"/>
      <point x="432" y="419"/>
      <point x="463" y="494" type="curve"/>
      <point x="424" y="494" type="line"/>
      <point x="389" y="401"/>
      <point x="355" y="310"/>
      <point x="319" y="215" type="curve"/>
      <point x="250" y="35" type="line"/>
      <point x="244" y="35" type="line"/>
      <point x="175" y="215" type="line"/>
      <point x="139" y="310"/>
      <point x="106" y="400"/>
      <point x="70" y="496" type="curve"/>
      <point x="33" y="494" type="line"/>
      <point x="62" y="422"/>
      <point x="91" y="347"/>
      <point x="120" y="275" type="curve"/>
      <point x="154" y="187" type="line"/>
      <point x="177" y="127"/>
      <point x="201" y="62"/>
    </contour>
  </outline>
</glyph>
<glyph name="x" format="2">
  <advance width="510"/>
  <unicode hex="0078"/>
  <outline>
    <contour>
      <point x="35" y="0" type="curve"/>
      <point x="79" y="0" type="line"/>
      <point x="115" y="49"/>
      <point x="141" y="85"/>
      <point x="177" y="134" type="curve"/>
      <point x="247" y="227" type="line"/>
      <point x="252" y="227" type="line"/>
      <point x="329" y="130" type="line"/>
      <point x="366" y="83"/>
      <point x="395" y="45"/>
      <point x="430" y="0" type="curve"/>
      <point x="475" y="0" type="line"/>
      <point x="423" y="63"/>
      <point x="391" y="102"/>
      <point x="353" y="148" type="curve"/>
      <point x="264" y="260" type="line"/>
      <point x="265" y="246" type="line"/>
      <point x="344" y="351" type="line"/>
      <point x="382" y="400"/>
      <point x="406" y="430"/>
      <point x="456" y="494" type="curve"/>
      <point x="411" y="494" type="line"/>
      <point x="375" y="445"/>
      <point x="349" y="409"/>
      <point x="316" y="364" type="curve"/>
      <point x="250" y="276" type="line"/>
      <point x="246" y="276" type="line"/>
      <point x="180" y="363" type="line"/>
      <point x="147" y="408"/>
      <point x="120" y="444"/>
      <point x="82" y="496" type="curve"/>
      <point x="39" y="494" type="line"/>
      <point x="88" y="432"/>
      <point x="116" y="396"/>
      <point x="155" y="347" type="curve"/>
      <point x="234" y="242" type="line"/>
      <point x="233" y="258" type="line"/>
      <point x="151" y="149" type="line"/>
      <point x="113" y="100"/>
      <point x="85" y="64"/>
    </contour>
  </outline>
</glyph>
<glyph name="y" format="2">
  <advance width="500"/>
  <unicode hex="0079"/>
  <anchor x="350" y="0" name="bottom"/>
  <anchor x="250" y="494" name="top"/>
  <outline>
    <contour>
      <point x="150" y="-194" type="curve"/>
      <point x="189" y="-192" type="line"/>
      <point x="218" y="-120"/>
      <point x="250" y="-39"/>
      <point x="300" y="88" type="curve"/>
      <point x="356" y="227" type="line"/>
      <point x="408" y="352"/>
      <point x="433" y="413"/>
      <point x="467" y="494" type="curve"/>
      <point x="428" y="494" type="line"/>
      <point x="392" y="400"/>
      <point x="357" y="310"/>
      <point x="320" y="215" type="curve"/>
      <point x="247" y="35" type="line"/>
      <point x="241" y="35" type="line"/>
      <point x="174" y="214" type="line"/>
      <point x="139" y="310"/>
      <point x="105" y="400"/>
      <point x="70" y="496" type="curve"/>
      <point x="33" y="494" type="line"/>
      <point x="61" y="423"/>
      <point x="91" y="347"/>
      <point x="119" y="276" type="curve"/>
      <point x="153" y="186" type="line"/>
      <point x="178" y="120"/>
      <point x="205" y="49"/>
      <point x="229" y="-19" type="curve"/>
      <point x="231" y="-4" type="line"/>
      <point x="204" y="-66"/>
      <point x="177" y="-131"/>
    </contour>
  </outline>
</glyph>
<glyph name="bar" format="2">
  <advance width="250"/>
  <unicode hex="007C"/>
  <outline>
    <contour>
      <point x="108" y="-154" type="curve"/>
      <point x="142" y="-154" type="line"/>
      <point x="141" y="-16"/>
      <point x="140" y="137"/>
      <point x="140" y="175" type="curve"/>
      <point x="140" y="457" type="line"/>
      <point x="140" y="495"/>
      <point x="141" y="648"/>
      <point x="142" y="786" type="curve"/>
      <point x="108" y="786" type="line"/>
      <point x="109" y="648"/>
      <point x="110" y="495"/>
      <point x="110" y="457" type="curve"/>
      <point x="110" y="175" type="line"/>
      <point x="110" y="137"/>
      <point x="109" y="-16"/>
    </contour>
  </outline>
</glyph>
<glyph name="asciitilde" format="2">
  <advance width="560"/>
  <unicode hex="007E"/>
  <outline>
    <contour>
      <point x="391" y="233" type="curve" smooth="yes"/>
      <point x="446" y="233"/>
      <point x="490" y="272"/>
      <point x="490" y="344" type="curve"/>
      <point x="461" y="344" type="line"/>
      <point x="458" y="288"/>
      <point x="431" y="266"/>
      <point x="389" y="264" type="curve"/>
      <point x="318" y="266"/>
      <point x="250" y="357"/>
      <point x="170" y="357" type="curve" smooth="yes"/>
      <point x="115" y="357"/>
      <point x="70" y="318"/>
      <point x="70" y="246" type="curve"/>
      <point x="99" y="246" type="line"/>
      <point x="102" y="302"/>
      <point x="130" y="324"/>
      <point x="172" y="326" type="curve"/>
      <point x="243" y="324"/>
      <point x="311" y="233"/>
    </contour>
  </outline>
</glyph>
<glyph name="sterling" format="2">
  <advance width="579"/>
  <unicode hex="00A3"/>
  <outline>
    <contour>
      <point x="75" y="0" type="line"/>
      <point x="544" y="0" type="line"/>
      <point x="544" y="33" type="line"/>
      <point x="464" y="32"/>
      <point x="333" y="31"/>
      <point x="244" y="30" type="curve"/>
      <point x="96" y="30" type="line"/>
      <point x="101" y="11" type="line"/>
      <point x="171" y="141"/>
      <point x="186" y="179"/>
      <point x="186" y="219" type="curve" smooth="yes"/>
      <point x="186" y="458" type="line" smooth="yes"/>
      <point x="186" y="600"/>
      <point x="244" y="663"/>
      <point x="363" y="664" type="curve"/>
      <point x="381" y="664"/>
      <point x="446" y="646"/>
      <point x="508" y="623" type="curve"/>
      <point x="513" y="658" type="line"/>
      <point x="475" y="671"/>
      <point x="393" y="696"/>
      <point x="362" y="696" type="curve" smooth="yes"/>
      <point x="237" y="696"/>
      <point x="154" y="622"/>
      <point x="154" y="462" type="curve" smooth="yes"/>
      <point x="154" y="381"/>
      <point x="155" y="301"/>
      <point x="155" y="220" type="curve"/>
      <point x="155" y="190"/>
      <point x="141" y="149"/>
      <point x="75" y="27" type="curve"/>
    </contour>
    <contour>
      <point x="66" y="367" type="line"/>
      <point x="124" y="368"/>
      <point x="191" y="369"/>
      <point x="226" y="369" type="curve"/>
      <point x="256" y="369" type="line"/>
      <point x="291" y="369"/>
      <point x="358" y="368"/>
      <point x="416" y="367" type="curve"/>
      <point x="416" y="399" type="line"/>
      <point x="358" y="398"/>
      <point x="291" y="397"/>
      <point x="256" y="397" type="curve"/>
      <point x="226" y="397" type="line"/>
      <point x="191" y="397"/>
      <point x="124" y="398"/>
      <point x="66" y="399" type="curve"/>
    </contour>
  </outline>
</glyph>
<glyph name="ordfeminine" format="2">
  <advance width="388"/>
  <unicode hex="00AA"/>
  <outline>
    <contour>
      <point x="159" y="335" type="curve" smooth="yes"/>
      <point x="197" y="335"/>
      <point x="251" y="369"/>
      <point x="296" y="404" type="curve"/>
      <point x="301" y="404" type="line"/>
      <point x="316" y="342" type="line"/>
      <point x="347" y="342" type="line"/>
      <point x="338" y="377"/>
      <point x="330" y="409"/>
      <point x="323" y="436" type="curve"/>
      <point x="323" y="502" type="line" smooth="yes"/>
      <point x="323" y="537"/>
      <point x="325" y="574"/>
      <point x="325" y="596" type="curve" smooth="yes"/>
      <point x="325" y="687"/>
      <point x="275" y="725"/>
      <point x="199" y="725" type="curve" smooth="yes"/>
      <point x="172" y="725"/>
      <point x="97" y="707"/>
      <point x="62" y="697" type="curve"/>
      <point x="64" y="664" type="line"/>
      <point x="123" y="682"/>
      <point x="182" y="695"/>
      <point x="197" y="695" type="curve" smooth="yes"/>
      <point x="251" y="695"/>
      <point x="299" y="680"/>
      <point x="295" y="583" type="curve"/>
      <point x="165" y="556" type="line" smooth="yes"/>
      <point x="117" y="546"/>
      <point x="45" y="520"/>
      <point x="45" y="438" type="curve" smooth="yes"/>
      <point x="45" y="377"/>
      <point x="87" y="335"/>
    </contour>
    <contour>
      <point x="163" y="365" type="curve" smooth="yes"/>
      <point x="111" y="365"/>
      <point x="75" y="386"/>
      <point x="75" y="441" type="curve" smooth="yes"/>
      <point x="75" y="500"/>
      <point x="125" y="520"/>
      <point x="177" y="530" type="curve" smooth="yes"/>
      <point x="259" y="546"/>
      <point x="280" y="554"/>
      <point x="295" y="560" type="curve"/>
      <point x="294" y="437" type="line"/>
      <point x="251" y="396"/>
      <point x="194" y="365"/>
    </contour>
  </outline>
</glyph>
<glyph name="eth" format="2">
  <advance width="588"/>
  <unicode hex="00F0"/>
  <outline>
    <contour>
      <point x="296" y="-9" type="curve" smooth="yes"/>
      <point x="444" y="-9"/>
      <point x="526" y="109"/>
      <point x="526" y="302" type="curve" smooth="yes"/>
      <point x="526" y="449"/>
      <point x="476" y="555"/>
      <point x="394" y="645" type="curve"/>
      <point x="353" y="683"/>
      <point x="313" y="717"/>
      <point x="273" y="750" type="curve"/>
      <point x="239" y="729" type="line"/>
      <point x="282" y="696"/>
      <point x="322" y="665"/>
      <point x="361" y="635" type="curve"/>
      <point x="449" y="545"/>
      <point x="495" y="436"/>
      <point x="495" y="301" type="curve" smooth="yes"/>
      <point x="495" y="128"/>
      <point x="431" y="26"/>
      <point x="296" y="23" type="curve"/>
      <point x="159" y="26"/>
      <point x="93" y="132"/>
      <point x="93" y="244" type="curve" smooth="yes"/>
      <point x="93" y="355"/>
      <point x="157" y="452"/>
      <point x="292" y="455" type="curve"/>
      <point x="326" y="455"/>
      <point x="414" y="429"/>
      <point x="499" y="360" type="curve"/>
      <point x="499" y="370"/>
      <point x="500" y="391"/>
      <point x="500" y="413" type="curve"/>
      <point x="478" y="412" type="line"/>
      <point x="415" y="455"/>
      <point x="335" y="487"/>
      <point x="292" y="487" type="curve" smooth="yes"/>
      <point x="153" y="487"/>
      <point x="62" y="380"/>
      <point x="62" y="244" type="curve" smooth="yes"/>
      <point x="62" y="111"/>
      <point x="150" y="-9"/>
    </contour>
    <contour>
      <point x="185" y="573" type="line"/>
      <point x="241" y="590"/>
      <point x="293" y="605"/>
      <point x="335" y="618" type="curve"/>
      <point x="380" y="631" type="line"/>
      <point x="423" y="643"/>
      <point x="475" y="657"/>
      <point x="531" y="672" type="curve"/>
      <point x="523" y="703" type="line"/>
      <point x="466" y="686"/>
      <point x="414" y="671"/>
      <point x="372" y="658" type="curve"/>
      <point x="327" y="645" type="line"/>
      <point x="286" y="634"/>
      <point x="232" y="619"/>
      <point x="176" y="604" type="curve"/>
    </contour>
  </outline>
</glyph>
<glyph name="dcroat" format="2">
  <advance width="572"/>
  <unicode hex="0111"/>
  <outline>
    <contour>
      <point x="257" y="610" type="line"/>
      <point x="312" y="611"/>
      <point x="354" y="611"/>
      <point x="406" y="612" type="curve"/>
      <point x="448" y="612" type="line"/>
      <point x="500" y="611"/>
      <point x="542" y="611"/>
      <point x="597" y="610" type="curve"/>
      <point x="597" y="640" type="line"/>
      <point x="542" y="640"/>
      <point x="500" y="640"/>
      <point x="448" y="640" type="curve"/>
      <point x="406" y="640" type="line"/>
      <point x="354" y="641"/>
      <point x="312" y="641"/>
      <point x="257" y="642" type="curve"/>
    </contour>
    <contour>
      <point x="283" y="-9" type="curve" smooth="yes"/>
      <point x="331" y="-9"/>
      <point x="401" y="29"/>
      <point x="451" y="71" type="curve"/>
      <point x="457" y="71" type="line"/>
      <point x="459" y="0" type="line"/>
      <point x="489" y="0" type="line"/>
      <point x="488" y="75"/>
      <point x="487" y="140"/>
      <point x="486" y="221" type="curve"/>
      <point x="486" y="494" type="line"/>
      <point x="487" y="579"/>
      <point x="488" y="658"/>
      <point x="489" y="740" type="curve"/>
      <point x="450" y="729" type="line"/>
      <point x="452" y="657"/>
      <point x="454" y="579"/>
      <point x="456" y="494" type="curve"/>
      <point x="456" y="430" type="line"/>
      <point x="450" y="430" type="line"/>
      <point x="403" y="464"/>
      <point x="345" y="504"/>
      <point x="285" y="504" type="curve" smooth="yes"/>
      <point x="146" y="504"/>
      <point x="62" y="396"/>
      <point x="62" y="249" type="curve" smooth="yes"/>
      <point x="62" y="110"/>
      <point x="137" y="-9"/>
    </contour>
    <contour>
      <point x="283" y="23" type="curve"/>
      <point x="149" y="26"/>
      <point x="93" y="131"/>
      <point x="93" y="249" type="curve" smooth="yes"/>
      <point x="93" y="372"/>
      <point x="154" y="469"/>
      <point x="285" y="472" type="curve"/>
      <point x="328" y="471"/>
      <point x="397" y="441"/>
      <point x="456" y="384" type="curve"/>
      <point x="456" y="116" type="line"/>
      <point x="407" y="69"/>
      <point x="338" y="25"/>
    </contour>
  </outline>
</glyph>
<glyph name="hbar" format="2">
  <advance width="568"/>
  <unicode hex="0127"/>
  <outline>
    <contour>
      <point x="-6" y="610" type="line"/>
      <point x="49" y="611"/>
      <point x="91" y="611"/>
      <point x="143" y="612" type="curve"/>
      <point x="185" y="612" type="line"/>
      <point x="237" y="611"/>
      <point x="279" y="611"/>
      <point x="334" y="610" type="curve"/>
      <point x="334" y="642" type="line"/>
      <point x="279" y="641"/>
      <point x="237" y="641"/>
      <point x="185" y="640" type="curve"/>
      <point x="143" y="640" type="line"/>
      <point x="91" y="640"/>
      <point x="49" y="640"/>
      <point x="-6" y="640" type="curve"/>
    </contour>
    <contour>
      <point x="102" y="0" type="curve"/>
      <point x="137" y="0" type="line"/>
      <point x="136" y="75"/>
      <point x="135" y="140"/>
      <point x="134" y="221" type="curve"/>
      <point x="134" y="351" type="line"/>
      <point x="202" y="421"/>
      <point x="282" y="472"/>
      <point x="325" y="472" type="curve" smooth="yes"/>
      <point x="418" y="472"/>
      <point x="448" y="422"/>
      <point x="448" y="326" type="curve"/>
      <point x="448" y="221" type="line"/>
      <point x="447" y="140"/>
      <point x="447" y="75"/>
      <point x="446" y="0" type="curve"/>
      <point x="481" y="0" type="line"/>
      <point x="480" y="75"/>
      <point x="479" y="140"/>
      <point x="478" y="221" type="curve"/>
      <point x="478" y="247"/>
      <point x="479" y="283"/>
      <point x="479" y="326" type="curve" smooth="yes"/>
      <point x="479" y="440"/>
      <point x="437" y="504"/>
      <point x="326" y="504" type="curve" smooth="yes"/>
      <point x="266" y="504"/>
      <point x="181" y="437"/>
      <point x="140" y="399" type="curve"/>
      <point x="134" y="399" type="line"/>
      <point x="134" y="494" type="line"/>
      <point x="135" y="579"/>
      <point x="136" y="658"/>
      <point x="137" y="740" type="curve"/>
      <point x="98" y="729" type="line"/>
      <point x="100" y="657"/>
      <point x="102" y="579"/>
      <point x="104" y="494" type="curve"/>
      <point x="104" y="221" type="line"/>
      <point x="103" y="140"/>
      <point x="103" y="75"/>
    </contour>
  </outline>
</glyph>
<glyph name="kgreenlandic" format="2">
  <advance width="508"/>
  <unicode hex="0138"/>
  <outline>
    <contour>
      <point x="429" y="0" type="curve"/>
      <point x="484" y="0" type="line"/>
      <point x="413" y="57"/>
      <point x="344" y="113"/>
      <point x="273" y="170" type="curve"/>
      <point x="163" y="259" type="line"/>
      <point x="163" y="240" type="line"/>
      <point x="260" y="323" type="line"/>
      <point x="329" y="380"/>
      <point x="394" y="436"/>
      <point x="464" y="494" type="curve"/>
      <point x="411" y="494" type="line"/>
      <point x="355" y="445"/>
      <point x="298" y="395"/>
      <point x="242" y="346" type="curve"/>
      <point x="149" y="266" type="line"/>
      <point x="119" y="266" type="line"/>
      <point x="119" y="238" type="line"/>
      <point x="142" y="238" type="line"/>
      <point x="255" y="147" type="line"/>
      <point x="313" y="98"/>
      <point x="371" y="49"/>
    </contour>
    <contour>
      <point x="94" y="0" type="curve"/>
      <point x="129" y="0" type="line"/>
      <point x="128" y="75"/>
      <point x="127" y="140"/>
      <point x="126" y="221" type="curve"/>
      <point x="126" y="271" type="line"/>
      <point x="126" y="352"/>
      <point x="126" y="421"/>
      <point x="129" y="496" type="curve"/>
      <point x="93" y="494" type="line"/>
      <point x="96" y="419"/>
      <point x="96" y="352"/>
      <point x="96" y="271" type="curve"/>
      <point x="96" y="221" type="line"/>
      <point x="95" y="140"/>
      <point x="95" y="75"/>
    </contour>
  </outline>
</glyph>
<glyph name="eng" format="2">
  <advance width="572"/>
  <unicode hex="014B"/>
  <outline>
    <contour>
      <point x="369" y="-194" type="curve"/>
      <point x="410" y="-192" type="line"/>
      <point x="429" y="-148"/>
      <point x="485" y="-4"/>
      <point x="485" y="13" type="curve" smooth="yes"/>
      <point x="485" y="74"/>
      <point x="485" y="137"/>
      <point x="485" y="271" type="curve"/>
      <point x="485" y="285"/>
      <point x="485" y="303"/>
      <point x="485" y="326" type="curve" smooth="yes"/>
      <point x="485" y="440"/>
      <point x="443" y="504"/>
      <point x="332" y="504" type="curve" smooth="yes"/>
      <point x="272" y="504"/>
      <point x="187" y="437"/>
      <point x="146" y="399" type="curve"/>
      <point x="140" y="399" type="line"/>
      <point x="134" y="497" type="line"/>
      <point x="101" y="494" type="line"/>
      <point x="104" y="443"/>
      <point x="108" y="390"/>
      <point x="110" y="342" type="curve"/>
      <point x="110" y="221" type="line"/>
      <point x="109" y="140"/>
      <point x="109" y="75"/>
      <point x="108" y="0" type="curve"/>
      <point x="143" y="0" type="line"/>
      <point x="142" y="75"/>
      <point x="141" y="140"/>
      <point x="140" y="221" type="curve"/>
      <point x="140" y="351" type="line"/>
      <point x="208" y="421"/>
      <point x="288" y="472"/>
      <point x="331" y="472" type="curve" smooth="yes"/>
      <point x="424" y="472"/>
      <point x="454" y="422"/>
      <point x="454" y="326" type="curve"/>
      <point x="454" y="221" type="line"/>
      <point x="451" y="2" type="line"/>
      <point x="417" y="-83"/>
      <point x="396" y="-133"/>
    </contour>
  </outline>
</glyph>
<glyph name="OE" format="2">
  <advance width="1097"/>
  <unicode hex="0152"/>
  <anchor x="549" y="0" name="bottom"/>
  <anchor x="549" y="713" name="top"/>
  <outline>
    <contour>
      <point x="614" y="0" type="curve"/>
      <point x="651" y="0" type="line"/>
      <point x="651" y="3" type="line"/>
      <point x="650" y="84"/>
      <point x="649" y="155"/>
      <point x="648" y="242" type="curve"/>
      <point x="648" y="472" type="line"/>
      <point x="649" y="559"/>
      <point x="650" y="629"/>
      <point x="651" y="710" type="curve"/>
      <point x="651" y="713" type="line"/>
      <point x="614" y="713" type="line"/>
      <point x="615" y="632"/>
      <point x="615" y="562"/>
      <point x="616" y="475" type="curve"/>
      <point x="616" y="238" type="line"/>
      <point x="615" y="151"/>
      <point x="615" y="81"/>
    </contour>
    <contour>
      <point x="642" y="0" type="line"/>
      <point x="1034" y="0" type="line"/>
      <point x="1034" y="35" type="line"/>
      <point x="957" y="34"/>
      <point x="875" y="32"/>
      <point x="782" y="31" type="curve"/>
      <point x="642" y="31" type="line"/>
    </contour>
    <contour>
      <point x="642" y="347" type="line"/>
      <point x="786" y="347" type="line"/>
      <point x="880" y="347"/>
      <point x="943" y="346"/>
      <point x="1012" y="346" type="curve"/>
      <point x="1012" y="381" type="line"/>
      <point x="947" y="380"/>
      <point x="882" y="379"/>
      <point x="787" y="378" type="curve"/>
      <point x="642" y="378" type="line"/>
    </contour>
    <contour>
      <point x="642" y="682" type="line"/>
      <point x="778" y="682" type="line"/>
      <point x="888" y="681"/>
      <point x="964" y="679"/>
      <point x="1035" y="678" type="curve"/>
      <point x="1035" y="713" type="line"/>
      <point x="642" y="713" type="line"/>
    </contour>
    <contour>
      <point x="417" y="-9" type="curve" smooth="yes"/>
      <point x="491" y="-9"/>
      <point x="567" y="7"/>
      <point x="625" y="46" type="curve"/>
      <point x="619" y="82" type="line"/>
      <point x="559" y="41"/>
      <point x="489" y="26"/>
      <point x="415" y="24" type="curve"/>
      <point x="203" y="27"/>
      <point x="93" y="173"/>
      <point x="93" y="358" type="curve" smooth="yes"/>
      <point x="93" y="560"/>
      <point x="221" y="688"/>
      <point x="402" y="692" type="curve"/>
      <point x="474" y="690"/>
      <point x="547" y="673"/>
      <point x="625" y="629" type="curve"/>
      <point x="630" y="664" type="line"/>
      <point x="584" y="691"/>
      <point x="502" y="725"/>
      <point x="403" y="725" type="curve" smooth="yes"/>
      <point x="202" y="725"/>
      <point x="60" y="576"/>
      <point x="60" y="359" type="curve" smooth="yes"/>
      <point x="60" y="153"/>
      <point x="190" y="-9"/>
    </contour>
  </outline>
</glyph>
<glyph name="jdotless" format="2">
  <advance width="238"/>
  <unicode hex="0237"/>
  <anchor x="120" y="-192" name="bottom"/>
  <anchor x="119" y="494" name="top"/>
  <outline>
    <contour>
      <point x="19" y="-194" type="curve"/>
      <point x="60" y="-192" type="line"/>
      <point x="79" y="-148"/>
      <point x="135" y="-4"/>
      <point x="135" y="13" type="curve" smooth="yes"/>
      <point x="135" y="74"/>
      <point x="134" y="137"/>
      <point x="134" y="271" type="curve"/>
      <point x="135" y="352"/>
      <point x="136" y="419"/>
      <point x="137" y="494" type="curve"/>
      <point x="101" y="494" type="line"/>
      <point x="102" y="419"/>
      <point x="103" y="352"/>
      <point x="104" y="271" type="curve"/>
      <point x="104" y="221" type="line"/>
      <point x="101" y="2" type="line"/>
      <point x="67" y="-83"/>
      <point x="46" y="-133"/>
    </contour>
  </outline>
</glyph>
<glyph name="circumflexcomb" format="2">
  <unicode hex="0302"/>
  <anchor x="300" y="494" name="_top"/>
  <anchor x="299" y="745" name="top"/>
  <outline>
    <contour>
      <point x="431" y="585" type="curve"/>
      <point x="464" y="586" type="line"/>
      <point x="416" y="650"/>
      <point x="369" y="715"/>
      <point x="322" y="777" type="curve"/>
      <point x="278" y="777" type="line"/>
      <point x="328" y="713"/>
      <point x="378" y="650"/>
    </contour>
    <contour>
      <point x="133" y="587" type="curve"/>
      <point x="166" y="587" type="line"/>
      <point x="219" y="651"/>
      <point x="269" y="714"/>
      <point x="319" y="777" type="curve"/>
      <point x="275" y="777" type="line"/>
      <point x="228" y="714"/>
      <point x="181" y="651"/>
    </contour>
  </outline>
</glyph>
<glyph name="ringcomb" format="2">
  <unicode hex="030A"/>
  <anchor x="300" y="494" name="_top"/>
  <anchor x="314" y="655" name="top"/>
  <outline>
    <contour>
      <point x="299" y="572" type="curve" smooth="yes"/>
      <point x="357" y="572"/>
      <point x="398" y="607"/>
      <point x="398" y="665" type="curve" smooth="yes"/>
      <point x="398" y="720"/>
      <point x="357" y="758"/>
      <point x="300" y="758" type="curve" smooth="yes"/>
      <point x="242" y="758"/>
      <point x="201" y="720"/>
      <point x="201" y="665" type="curve" smooth="yes"/>
      <point x="201" y="607"/>
      <point x="242" y="572"/>
    </contour>
    <contour>
      <point x="299" y="600" type="curve"/>
      <point x="260" y="601"/>
      <point x="230" y="621"/>
      <point x="230" y="665" type="curve" smooth="yes"/>
      <point x="230" y="706"/>
      <point x="260" y="729"/>
      <point x="300" y="730" type="curve"/>
      <point x="339" y="729"/>
      <point x="369" y="706"/>
      <point x="369" y="665" type="curve" smooth="yes"/>
      <point x="369" y="621"/>
      <point x="339" y="601"/>
    </contour>
  </outline>
</glyph>
<glyph name="hungarumlautcomb" format="2">
  <unicode hex="030B"/>
  <anchor x="300" y="494" name="_top"/>
  <anchor x="299" y="736" name="top"/>
  <outline>
    <contour>
      <point x="344" y="586" type="curve"/>
      <point x="377" y="587" type="line"/>
      <point x="430" y="651"/>
      <point x="482" y="714"/>
      <point x="532" y="779" type="curve"/>
      <point x="486" y="778" type="line"/>
      <point x="439" y="715"/>
      <point x="392" y="650"/>
    </contour>
    <contour>
      <point x="180" y="586" type="curve"/>
      <point x="211" y="587" type="line"/>
      <point x="258" y="651"/>
      <point x="303" y="714"/>
      <point x="346" y="779" type="curve"/>
      <point x="302" y="778" type="line"/>
      <point x="262" y="714"/>
      <point x="222" y="650"/>
    </contour>
  </outline>
</glyph>
<glyph name="commaaccentcomb" format="2">
  <unicode hex="0326"/>
  <anchor x="300" y="0" name="_bottom"/>
  <anchor x="300" y="-273" name="bottom"/>
  <outline>
    <contour>
      <point x="261" y="-282" type="curve"/>
      <point x="281" y="-281" type="line"/>
      <point x="299" y="-248"/>
      <point x="335" y="-177"/>
      <point x="335" y="-156" type="curve" smooth="yes"/>
      <point x="335" y="-133"/>
      <point x="325" y="-116"/>
      <point x="303" y="-115" type="curve"/>
      <point x="283" y="-116" type="line"/>
      <point x="284" y="-132"/>
      <point x="285" y="-149"/>
      <point x="286" y="-165" type="curve"/>
      <point x="277" y="-211"/>
      <point x="270" y="-245"/>
    </contour>
  </outline>
</glyph>
<glyph name="ogonekcomb" format="2">
  <unicode hex="0328"/>
  <anchor x="299" y="0" name="_ogonek"/>
  <outline>
    <contour>
      <point x="251" y="-200" type="curve" smooth="yes"/>
      <point x="258" y="-200"/>
      <point x="281" y="-197"/>
      <point x="303" y="-194" type="curve"/>
      <point x="303" y="-164" type="line"/>
      <point x="292" y="-166"/>
      <point x="270" y="-169"/>
      <point x="251" y="-171" type="curve"/>
      <point x="216" y="-170"/>
      <point x="193" y="-156"/>
      <point x="193" y="-123" type="curve" smooth="yes"/>
      <point x="193" y="-80"/>
      <point x="242" y="-31"/>
      <point x="299" y="0" type="curve"/>
      <point x="288" y="20" type="line"/>
      <point x="272" y="20" type="line"/>
      <point x="272" y="10" type="line"/>
      <point x="195" y="-37"/>
      <point x="162" y="-82"/>
      <point x="162" y="-126" type="curve" smooth="yes"/>
      <point x="162" y="-172"/>
      <point x="198" y="-200"/>
    </contour>
  </outline>
</glyph>
<glyph name="slashshortcomb" format="2">
  <unicode hex="0337"/>
  <anchor x="298" y="244" name="_center"/>
  <outline>
    <contour>
      <point x="93" y="-61" type="line"/>
      <point x="142" y="5"/>
      <point x="183" y="59"/>
      <point x="236" y="130" type="curve"/>
      <point x="379" y="317" type="line"/>
      <point x="433" y="386"/>
      <point x="480" y="446"/>
      <point x="529" y="508" type="curve"/>
      <point x="501" y="528" type="line"/>
      <point x="453" y="464"/>
      <point x="411" y="408"/>
      <point x="357" y="336" type="curve"/>
      <point x="213" y="148" type="line"/>
      <point x="160" y="80"/>
      <point x="117" y="25"/>
      <point x="66" y="-40" type="curve"/>
    </contour>
  </outline>
</glyph>
<glyph name="dagger" format="2">
  <advance width="560"/>
  <unicode hex="2020"/>
  <outline>
    <contour>
      <point x="262" y="0" type="curve"/>
      <point x="298" y="0" type="line"/>
      <point x="297" y="146"/>
      <point x="296" y="273"/>
      <point x="295" y="431" type="curve"/>
      <point x="295" y="447" type="line"/>
      <point x="296" y="532"/>
      <point x="297" y="612"/>
      <point x="298" y="684" type="curve"/>
      <point x="262" y="684" type="line"/>
      <point x="263" y="612"/>
      <point x="264" y="532"/>
      <point x="265" y="447" type="curve"/>
      <point x="265" y="431" type="line"/>
      <point x="264" y="273"/>
      <point x="263" y="146"/>
    </contour>
    <contour>
      <point x="60" y="428" type="line"/>
      <point x="118" y="429"/>
      <point x="185" y="430"/>
      <point x="220" y="430" type="curve"/>
      <point x="340" y="430" type="line"/>
      <point x="375" y="430"/>
      <point x="442" y="429"/>
      <point x="500" y="428" type="curve"/>
      <point x="500" y="462" type="line"/>
      <point x="442" y="461"/>
      <point x="375" y="460"/>
      <point x="340" y="460" type="curve"/>
      <point x="220" y="460" type="line"/>
      <point x="185" y="460"/>
      <point x="118" y="461"/>
      <point x="60" y="462" type="curve"/>
    </contour>
  </outline>
</glyph>
<glyph name="guilsinglleft" format="2">
  <advance width="307"/>
  <unicode hex="2039"/>
  <outline>
    <contour>
      <point x="230" y="-2" type="curve"/>
      <point x="269" y="0" type="line"/>
      <point x="204" y="82"/>
      <point x="139" y="164"/>
      <point x="74" y="246" type="curve"/>
      <point x="74" y="252" type="line"/>
      <point x="139" y="334"/>
      <point x="204" y="416"/>
      <point x="269" y="498" type="curve"/>
      <point x="230" y="500" type="line"/>
      <point x="165" y="416"/>
      <point x="100" y="333"/>
      <point x="35" y="249" type="curve"/>
      <point x="100" y="165"/>
      <point x="165" y="82"/>
    </contour>
  </outline>
</glyph>
<glyph name="colonsign" format="2">
  <advance width="656"/>
  <unicode hex="20A1"/>
  <outline>
    <contour>
      <point x="399" y="-9" type="curve" smooth="yes"/>
      <point x="445" y="-9"/>
      <point x="538" y="20"/>
      <point x="597" y="43" type="curve"/>
      <point x="591" y="82" type="line"/>
      <point x="521" y="47"/>
      <point x="428" y="23"/>
      <point x="397" y="23" type="curve"/>
      <point x="198" y="25"/>
      <point x="92" y="166"/>
      <point x="92" y="344" type="curve" smooth="yes"/>
      <point x="92" y="537"/>
      <point x="213" y="662"/>
      <point x="385" y="664" type="curve"/>
      <point x="412" y="664"/>
      <point x="506" y="636"/>
      <point x="597" y="602" type="curve"/>
      <point x="602" y="639" type="line"/>
      <point x="547" y="657"/>
      <point x="431" y="696"/>
      <point x="386" y="696" type="curve" smooth="yes"/>
      <point x="200" y="696"/>
      <point x="60" y="553"/>
      <point x="60" y="345" type="curve" smooth="yes"/>
      <point x="60" y="147"/>
      <point x="189" y="-9"/>
    </contour>
    <contour>
      <point x="181" y="-137" type="curve"/>
      <point x="216" y="-137" type="line"/>
      <point x="245" y="1"/>
      <point x="276" y="154"/>
      <point x="284" y="192" type="curve"/>
      <point x="344" y="474" type="line"/>
      <point x="352" y="512"/>
      <point x="386" y="665"/>
      <point x="416" y="803" type="curve"/>
      <point x="381" y="803" type="line"/>
      <point x="353" y="665"/>
      <point x="321" y="512"/>
      <point x="313" y="474" type="curve"/>
      <point x="253" y="192" type="line"/>
      <point x="245" y="154"/>
      <point x="212" y="1"/>
    </contour>
    <contour>
      <point x="308" y="-137" type="curve"/>
      <point x="343" y="-137" type="line"/>
      <point x="372" y="1"/>
      <point x="403" y="154"/>
      <point x="411" y="192" type="curve"/>
      <point x="471" y="474" type="line"/>
      <point x="479" y="512"/>
      <point x="513" y="665"/>
      <point x="543" y="803" type="curve"/>
      <point x="508" y="803" type="line"/>
      <point x="480" y="665"/>
      <point x="448" y="512"/>
      <point x="440" y="474" type="curve"/>
      <point x="380" y="192" type="line"/>
      <point x="372" y="154"/>
      <point x="339" y="1"/>
    </contour>
  </outline>
</glyph>
<glyph name="kip" format="2">
  <advance width="651"/>
  <unicode hex="20AD"/>
  <outline>
    <contour>
      <point x="565" y="0" type="curve"/>
      <point x="618" y="0" type="line"/>
      <point x="553" y="58"/>
      <point x="451" y="150"/>
      <point x="378" y="215" type="curve"/>
      <point x="221" y="359" type="line"/>
      <point x="221" y="346" type="line"/>
      <point x="365" y="476" type="line"/>
      <point x="437" y="540"/>
      <point x="518" y="612"/>
      <point x="599" y="684" type="curve"/>
      <point x="546" y="684" type="line"/>
      <point x="462" y="607"/>
      <point x="402" y="552"/>
      <point x="341" y="496" type="curve"/>
      <point x="200" y="368" type="line"/>
      <point x="160" y="368" type="line"/>
      <point x="160" y="340" type="line"/>
      <point x="197" y="340" type="line"/>
      <point x="361" y="189" type="line"/>
      <point x="425" y="130"/>
      <point x="493" y="67"/>
    </contour>
    <contour>
      <point x="135" y="0" type="curve"/>
      <point x="171" y="0" type="line"/>
      <point x="170" y="78"/>
      <point x="169" y="145"/>
      <point x="168" y="228" type="curve"/>
      <point x="168" y="456" type="line"/>
      <point x="169" y="540"/>
      <point x="170" y="607"/>
      <point x="171" y="684" type="curve"/>
      <point x="135" y="684" type="line"/>
      <point x="136" y="607"/>
      <point x="136" y="540"/>
      <point x="137" y="456" type="curve"/>
      <point x="137" y="228" type="line"/>
      <point x="136" y="145"/>
      <point x="136" y="78"/>
    </contour>
    <contour>
      <point x="38" y="338" type="line"/>
      <point x="96" y="339"/>
      <point x="163" y="340"/>
      <point x="198" y="340" type="curve"/>
      <point x="398" y="340" type="line"/>
      <point x="433" y="340"/>
      <point x="500" y="339"/>
      <point x="558" y="338" type="curve"/>
      <point x="558" y="370" type="line"/>
      <point x="500" y="369"/>
      <point x="433" y="368"/>
      <point x="398" y="368" type="curve"/>
      <point x="198" y="368" type="line"/>
      <point x="163" y="368"/>
      <point x="96" y="369"/>
      <point x="38" y="370" type="curve"/>
    </contour>
  </outline>
</glyph>
<glyph name="partialdiff" format="2">
  <advance width="588"/>
  <unicode hex="2202"/>
  <outline>
    <contour>
      <point x="296" y="-9" type="curve" smooth="yes"/>
      <point x="444" y="-9"/>
      <point x="526" y="109"/>
      <point x="526" y="322" type="curve" smooth="yes"/>
      <point x="526" y="554"/>
      <point x="443" y="696"/>
      <point x="282" y="696" type="curve" smooth="yes"/>
      <point x="245" y="696"/>
      <point x="145" y="661"/>
      <point x="101" y="643" type="curve"/>
      <point x="108" y="607" type="line"/>
      <point x="182" y="639"/>
      <point x="260" y="664"/>
      <point x="282" y="664" type="curve"/>
      <point x="424" y="662"/>
      <point x="495" y="541"/>
      <point x="495" y="321" type="curve" smooth="yes"/>
      <point x="495" y="128"/>
      <point x="431" y="26"/>
      <point x="296" y="23" type="curve"/>
      <point x="159" y="26"/>
      <point x="93" y="132"/>
      <point x="93" y="238" type="curve" smooth="yes"/>
      <point x="93" y="345"/>
      <point x="157" y="442"/>
      <point x="292" y="445" type="curve"/>
      <point x="332" y="445"/>
      <point x="420" y="419"/>
      <point x="505" y="350" type="curve"/>
      <point x="505" y="360"/>
      <point x="506" y="381"/>
      <point x="506" y="403" type="curve"/>
      <point x="484" y="402" type="line"/>
      <point x="421" y="445"/>
      <point x="341" y="477"/>
      <point x="292" y="477" type="curve" smooth="yes"/>
      <point x="153" y="477"/>
      <point x="62" y="370"/>
      <point x="62" y="238" type="curve" smooth="yes"/>
      <point x="62" y="111"/>
      <point x="150" y="-9"/>
    </contour>
  </outline>
</glyph>
<glyph name="infinity" format="2">
  <advance width="898"/>
  <unicode hex="221E"/>
  <outline>
    <contour>
      <point x="658" y="86" type="curve" smooth="yes"/>
      <point x="779" y="86"/>
      <point x="836" y="186"/>
      <point x="836" y="295" type="curve" smooth="yes"/>
      <point x="836" y="411"/>
      <point x="771" y="504"/>
      <point x="656" y="504" type="curve" smooth="yes"/>
      <point x="589" y="504"/>
      <point x="502" y="418"/>
      <point x="436" y="304" type="curve"/>
      <point x="436" y="286" type="line"/>
      <point x="502" y="169"/>
      <point x="588" y="86"/>
    </contour>
    <contour>
      <point x="240" y="86" type="curve" smooth="yes"/>
      <point x="310" y="86"/>
      <point x="396" y="169"/>
      <point x="462" y="286" type="curve"/>
      <point x="462" y="304" type="line"/>
      <point x="396" y="418"/>
      <point x="309" y="504"/>
      <point x="242" y="504" type="curve" smooth="yes"/>
      <point x="127" y="504"/>
      <point x="62" y="411"/>
      <point x="62" y="295" type="curve" smooth="yes"/>
      <point x="62" y="186"/>
      <point x="119" y="86"/>
    </contour>
    <contour>
      <point x="241" y="117" type="curve"/>
      <point x="150" y="120"/>
      <point x="93" y="181"/>
      <point x="93" y="295" type="curve" smooth="yes"/>
      <point x="93" y="408"/>
      <point x="152" y="470"/>
      <point x="242" y="473" type="curve"/>
      <point x="293" y="471"/>
      <point x="371" y="400"/>
      <point x="432" y="295" type="curve"/>
      <point x="372" y="188"/>
      <point x="295" y="119"/>
    </contour>
    <contour>
      <point x="657" y="117" type="curve"/>
      <point x="603" y="119"/>
      <point x="526" y="188"/>
      <point x="466" y="295" type="curve"/>
      <point x="527" y="400"/>
      <point x="605" y="471"/>
      <point x="656" y="473" type="curve"/>
      <point x="746" y="470"/>
      <point x="805" y="408"/>
      <point x="805" y="295" type="curve" smooth="yes"/>
      <point x="805" y="181"/>
      <point x="748" y="120"/>
    </contour>
  </outline>
</glyph>
<glyph name="greaterequal" format="2">
  <advance width="560"/>
  <unicode hex="2265"/>
  <outline>
    <contour>
      <point x="70" y="-2" type="line"/>
      <point x="128" y="-1"/>
      <point x="195" y="0"/>
      <point x="230" y="0" type="curve"/>
      <point x="330" y="0" type="line"/>
      <point x="365" y="0"/>
      <point x="432" y="-1"/>
      <point x="490" y="-2" type="curve"/>
      <point x="490" y="32" type="line"/>
      <point x="432" y="31"/>
      <point x="365" y="30"/>
      <point x="330" y="30" type="curve"/>
      <point x="230" y="30" type="line"/>
      <point x="195" y="30"/>
      <point x="128" y="31"/>
      <point x="70" y="32" type="curve"/>
    </contour>
    <contour>
      <point x="70" y="160" type="line"/>
      <point x="128" y="187"/>
      <point x="186" y="214"/>
      <point x="231" y="235" type="curve"/>
      <point x="331" y="280" type="line"/>
      <point x="379" y="301"/>
      <point x="433" y="325"/>
      <point x="490" y="350" type="curve"/>
      <point x="490" y="386" type="line"/>
      <point x="433" y="410"/>
      <point x="377" y="435"/>
      <point x="331" y="456" type="curve"/>
      <point x="231" y="501" type="line"/>
      <point x="184" y="523"/>
      <point x="126" y="550"/>
      <point x="70" y="576" type="curve"/>
      <point x="70" y="537" type="line"/>
      <point x="149" y="503"/>
      <point x="236" y="465"/>
      <point x="317" y="430" type="curve"/>
      <point x="448" y="371" type="line"/>
      <point x="448" y="365" type="line"/>
      <point x="317" y="306" type="line"/>
      <point x="236" y="271"/>
      <point x="149" y="233"/>
      <point x="70" y="199" type="curve"/>
    </contour>
  </outline>
</glyph>
<glyph name="lozenge" format="2">
  <advance width="590"/>
  <unicode hex="25CA"/>
  <outline>
    <contour>
      <point x="269" y="10" type="curve"/>
      <point x="321" y="10" type="line"/>
      <point x="388" y="106"/>
      <point x="455" y="201"/>
      <point x="522" y="297" type="curve"/>
      <point x="455" y="393"/>
      <point x="388" y="488"/>
      <point x="321" y="584" type="curve"/>
      <point x="269" y="584" type="line"/>
      <point x="202" y="488"/>
      <point x="135" y="393"/>
      <point x="68" y="297" type="curve"/>
      <point x="135" y="201"/>
      <point x="202" y="106"/>
    </contour>
    <contour>
      <point x="292" y="38" type="line"/>
      <point x="230" y="124"/>
      <point x="167" y="211"/>
      <point x="105" y="297" type="curve"/>
      <point x="167" y="383"/>
      <point x="230" y="470"/>
      <point x="292" y="556" type="curve"/>
      <point x="298" y="556" type="line"/>
      <point x="360" y="470"/>
      <point x="423" y="383"/>
      <point x="485" y="297" type="curve"/>
      <point x="423" y="211"/>
      <point x="360" y="124"/>
      <point x="298" y="38" type="curve"/>
    </contour>
  </outline>
</glyph>
<glyph name="H.bar" format="2">
  <advance width="750"/>
  <anchor x="375" y="0" name="bottom"/>
  <anchor x="375" y="357" name="center"/>
  <anchor x="375" y="713" name="top"/>
  <anchor x="36" y="713" name="topleft"/>
  <outline>
    <contour>
      <point x="605" y="0" type="curve"/>
      <point x="642" y="0" type="line"/>
      <point x="641" y="81"/>
      <point x="640" y="151"/>
      <point x="639" y="238" type="curve"/>
      <point x="639" y="475" type="line"/>
      <point x="640" y="562"/>
      <point x="641" y="632"/>
      <point x="642" y="713" type="curve"/>
      <point x="605" y="713" type="line"/>
      <point x="606" y="632"/>
      <point x="606" y="562"/>
      <point x="607" y="475" type="curve"/>
      <point x="607" y="238" type="line"/>
      <point x="606" y="151"/>
      <point x="606" y="81"/>
    </contour>
    <contour>
      <point x="108" y="0" type="curve"/>
      <point x="145" y="0" type="line"/>
      <point x="144" y="81"/>
      <point x="143" y="151"/>
      <point x="142" y="238" type="curve"/>
      <point x="142" y="475" type="line"/>
      <point x="143" y="562"/>
      <point x="144" y="632"/>
      <point x="145" y="713" type="curve"/>
      <point x="108" y="713" type="line"/>
      <point x="109" y="632"/>
      <point x="109" y="562"/>
      <point x="110" y="475" type="curve"/>
      <point x="110" y="238" type="line"/>
      <point x="109" y="151"/>
      <point x="109" y="81"/>
    </contour>
    <contour>
      <point x="121" y="347" type="line"/>
      <point x="631" y="347" type="line"/>
      <point x="631" y="378" type="line"/>
      <point x="121" y="378" type="line"/>
    </contour>
  </outline>
</glyph>
<glyph name=".notdef" format="2">
  <advance width="635"/>
  <outline>
    <contour>
      <point x="50" y="-192" type="line"/>
      <point x="585" y="-192" type="line"/>
      <point x="585" y="818" type="line"/>
      <point x="50" y="818" type="line"/>
    </contour>
    <contour>
      <point x="80" y="-162" type="line"/>
      <point x="80" y="788" type="line"/>
      <point x="555" y="788" type="line"/>
      <point x="555" y="-162" type="line"/>
    </contour>
    <contour>
      <point x="329" y="191" type="curve" smooth="yes"/>
      <point x="339" y="191"/>
      <point x="363" y="194"/>
      <point x="386" y="198" type="curve"/>
      <point x="383" y="224" type="line"/>
      <point x="366" y="220"/>
      <point x="341" y="214"/>
      <point x="329" y="214" type="curve"/>
      <point x="291" y="215"/>
      <point x="258" y="229"/>
      <point x="258" y="274" type="curve" smooth="yes"/>
      <point x="258" y="314"/>
      <point x="294" y="343"/>
      <point x="337" y="374" type="curve" smooth="yes"/>
      <point x="388" y="411"/>
      <point x="445" y="454"/>
      <point x="445" y="528" type="curve" smooth="yes"/>
      <point x="445" y="600"/>
      <point x="389" y="640"/>
      <point x="312" y="640" type="curve" smooth="yes"/>
      <point x="289" y="640"/>
      <point x="224" y="621"/>
      <point x="191" y="611" type="curve"/>
      <point x="193" y="582" type="line"/>
      <point x="244" y="599"/>
      <point x="297" y="614"/>
      <point x="313" y="614" type="curve"/>
      <point x="379" y="613"/>
      <point x="419" y="584"/>
      <point x="419" y="529" type="curve" smooth="yes"/>
      <point x="419" y="466"/>
      <point x="368" y="428"/>
      <point x="321" y="392" type="curve" smooth="yes"/>
      <point x="276" y="358"/>
      <point x="232" y="326"/>
      <point x="232" y="274" type="curve" smooth="yes"/>
      <point x="232" y="224"/>
      <point x="272" y="191"/>
    </contour>
    <contour>
      <point x="308" y="9" type="curve" smooth="yes"/>
      <point x="332" y="9"/>
      <point x="346" y="20"/>
      <point x="346" y="49" type="curve" smooth="yes"/>
      <point x="346" y="73"/>
      <point x="332" y="84"/>
      <point x="308" y="84" type="curve" smooth="yes"/>
      <point x="286" y="84"/>
      <point x="271" y="73"/>
      <point x="271" y="49" type="curve" smooth="yes"/>
      <point x="271" y="20"/>
      <point x="286" y="9"/>
    </contour>
  </outline>
</glyph>
<glyph name="_notequal" format="2">
  <advance width="560"/>
  <outline>
    <contour>
      <point x="227" y="35" type="line"/>
      <point x="241" y="91"/>
      <point x="257" y="156"/>
      <point x="266" y="190" type="curve"/>
      <point x="321" y="393" type="line"/>
      <point x="330" y="427"/>
      <point x="348" y="491"/>
      <point x="364" y="547" type="curve"/>
      <point x="333" y="555" type="line"/>
      <point x="319" y="499"/>
      <point x="303" y="434"/>
      <point x="294" y="400" type="curve"/>
      <point x="239" y="197" type="line"/>
      <point x="230" y="163"/>
      <point x="212" y="99"/>
      <point x="196" y="43" type="curve"/>
    </contour>
  </outline>
</glyph>
<glyph name="_slash.Lslash" format="2">
  <advance width="576"/>
  <anchor x="287" y="357" name="_center"/>
  <outline>
    <contour>
      <point x="10" y="293" type="line"/>
      <point x="72" y="312"/>
      <point x="129" y="330"/>
      <point x="178" y="345" type="curve"/>
      <point x="225" y="359" type="line"/>
      <point x="275" y="373"/>
      <point x="330" y="389"/>
      <point x="394" y="407" type="curve"/>
      <point x="384" y="440" type="line"/>
      <point x="323" y="421"/>
      <point x="268" y="404"/>
      <point x="216" y="388" type="curve"/>
      <point x="170" y="374" type="line"/>
      <point x="120" y="360"/>
      <point x="63" y="344"/>
      <point x="0" y="326" type="curve"/>
    </contour>
  </outline>
</glyph>
<glyph name="acutecomb.case" format="2">
  <anchor x="300" y="494" name="_top"/>
  <anchor x="299" y="676" name="top"/>
  <outline>
    <contour>
      <point x="244" y="576" type="curve"/>
      <point x="277" y="577" type="line"/>
      <point x="330" y="635"/>
      <point x="382" y="692"/>
      <point x="432" y="751" type="curve"/>
      <point x="386" y="751" type="line"/>
      <point x="338" y="693"/>
      <point x="292" y="635"/>
    </contour>
  </outline>
</glyph>
<glyph name="brevecomb_hookabovecomb.case" format="2">
  <anchor x="298.5" y="494" name="_top"/>
  <outline>
    <contour>
      <point x="298" y="575" type="curve" smooth="yes"/>
      <point x="390" y="575"/>
      <point x="441" y="638"/>
      <point x="441" y="718" type="curve"/>
      <point x="412" y="718" type="line"/>
      <point x="412" y="646"/>
      <point x="371" y="608"/>
      <point x="298" y="606" type="curve"/>
      <point x="226" y="608"/>
      <point x="185" y="646"/>
      <point x="185" y="719" type="curve"/>
      <point x="156" y="718" type="line"/>
      <point x="156" y="638"/>
      <point x="208" y="575"/>
    </contour>
    <contour>
      <point x="278" y="704" type="line"/>
      <point x="308" y="704" type="line"/>
      <point x="308" y="739" type="line"/>
      <point x="344" y="744"/>
      <point x="396" y="771"/>
      <point x="396" y="827" type="curve" smooth="yes"/>
      <point x="396" y="879"/>
      <point x="349" y="904"/>
      <point x="302" y="904" type="curve" smooth="yes"/>
      <point x="287" y="904"/>
      <point x="235" y="889"/>
      <point x="210" y="881" type="curve"/>
      <point x="213" y="847" type="line"/>
      <point x="249" y="860"/>
      <point x="290" y="873"/>
      <point x="301" y="873" type="curve"/>
      <point x="335" y="872"/>
      <point x="365" y="861"/>
      <point x="365" y="827" type="curve" smooth="yes"/>
      <point x="365" y="790"/>
      <point x="328" y="764"/>
      <point x="278" y="757" type="curve"/>
    </contour>
  </outline>
</glyph>
<glyph name="brevecomb_tildecomb.case" format="2">
  <anchor x="299" y="494" name="_top"/>
  <outline>
    <contour>
      <point x="298" y="575" type="curve" smooth="yes"/>
      <point x="390" y="575"/>
      <point x="441" y="638"/>
      <point x="441" y="718" type="curve"/>
      <point x="412" y="718" type="line"/>
      <point x="412" y="646"/>
      <point x="371" y="608"/>
      <point x="298" y="606" type="curve"/>
      <point x="226" y="608"/>
      <point x="185" y="646"/>
      <point x="185" y="719" type="curve"/>
      <point x="156" y="718" type="line"/>
      <point x="156" y="638"/>
      <point x="208" y="575"/>
    </contour>
    <contour>
      <point x="380" y="767" type="curve" smooth="yes"/>
      <point x="432" y="767"/>
      <point x="463" y="806"/>
      <point x="463" y="878" type="curve"/>
      <point x="435" y="878" type="line"/>
      <point x="431" y="822"/>
      <point x="418" y="800"/>
      <point x="381" y="798" type="curve"/>
      <point x="321" y="800"/>
      <point x="290" y="891"/>
      <point x="218" y="891" type="curve" smooth="yes"/>
      <point x="166" y="891"/>
      <point x="135" y="852"/>
      <point x="135" y="780" type="curve"/>
      <point x="163" y="780" type="line"/>
      <point x="166" y="836"/>
      <point x="181" y="858"/>
      <point x="217" y="860" type="curve"/>
      <point x="277" y="858"/>
      <point x="308" y="767"/>
    </contour>
  </outline>
</glyph>
<glyph name="cent.BRACKET.140" format="2">
  <advance width="502"/>
  <anchor x="290" y="0" name="bottom"/>
  <anchor x="281" y="494" name="top"/>
  <outline>
    <contour>
      <point x="261" y="-137" type="curve"/>
      <point x="294" y="-137" type="line"/>
      <point x="294" y="-88"/>
      <point x="293" y="-38"/>
      <point x="293" y="9" type="curve"/>
      <point x="262" y="9" type="line"/>
      <point x="262" y="-38"/>
      <point x="261" y="-88"/>
    </contour>
    <contour>
      <point x="262" y="482" type="curve"/>
      <point x="293" y="482" type="line"/>
      <point x="293" y="527"/>
      <point x="294" y="576"/>
      <point x="294" y="623" type="curve"/>
      <point x="261" y="623" type="line"/>
      <point x="261" y="576"/>
      <point x="262" y="527"/>
    </contour>
    <contour>
      <point x="304" y="-9" type="curve" smooth="yes"/>
      <point x="337" y="-9"/>
      <point x="406" y="11"/>
      <point x="449" y="27" type="curve"/>
      <point x="442" y="63" type="line"/>
      <point x="392" y="40"/>
      <point x="326" y="23"/>
      <point x="304" y="23" type="curve"/>
      <point x="162" y="26"/>
      <point x="93" y="122"/>
      <point x="93" y="248" type="curve" smooth="yes"/>
      <point x="93" y="385"/>
      <point x="173" y="469"/>
      <point x="296" y="472" type="curve"/>
      <point x="314" y="472"/>
      <point x="379" y="454"/>
      <point x="441" y="431" type="curve"/>
      <point x="446" y="467" type="line"/>
      <point x="408" y="479"/>
      <point x="326" y="504"/>
      <point x="295" y="504" type="curve" smooth="yes"/>
      <point x="150" y="504"/>
      <point x="62" y="393"/>
      <point x="62" y="248" type="curve" smooth="yes"/>
      <point x="62" y="104"/>
      <point x="149" y="-9"/>
    </contour>
  </outline>
</glyph>
<glyph name="circumflexcomb.narrow" format="2">
  <anchor x="300" y="494" name="_top"/>
  <anchor x="299" y="745" name="top"/>
  <outline>
    <contour>
      <point x="415" y="585" type="curve"/>
      <point x="444" y="586" type="line"/>
      <point x="402" y="650"/>
      <point x="360" y="715"/>
      <point x="319" y="777" type="curve"/>
      <point x="280" y="777" type="line"/>
      <point x="324" y="714"/>
      <point x="368" y="652"/>
    </contour>
    <contour>
      <point x="153" y="587" type="curve"/>
      <point x="182" y="587" type="line"/>
      <point x="228" y="652"/>
      <point x="273" y="715"/>
      <point x="317" y="777" type="curve"/>
      <point x="278" y="777" type="line"/>
      <point x="237" y="714"/>
      <point x="195" y="651"/>
    </contour>
  </outline>
</glyph>
<glyph name="colonsign.BRACKET.140" format="2">
  <advance width="656"/>
  <outline>
    <contour>
      <point x="399" y="-9" type="curve" smooth="yes"/>
      <point x="445" y="-9"/>
      <point x="538" y="20"/>
      <point x="597" y="43" type="curve"/>
      <point x="591" y="82" type="line"/>
      <point x="521" y="47"/>
      <point x="428" y="23"/>
      <point x="397" y="23" type="curve"/>
      <point x="198" y="25"/>
      <point x="92" y="166"/>
      <point x="92" y="344" type="curve" smooth="yes"/>
      <point x="92" y="537"/>
      <point x="213" y="662"/>
      <point x="385" y="664" type="curve"/>
      <point x="412" y="664"/>
      <point x="506" y="636"/>
      <point x="597" y="602" type="curve"/>
      <point x="602" y="639" type="line"/>
      <point x="547" y="657"/>
      <point x="431" y="696"/>
      <point x="386" y="696" type="curve" smooth="yes"/>
      <point x="200" y="696"/>
      <point x="60" y="553"/>
      <point x="60" y="345" type="curve" smooth="yes"/>
      <point x="60" y="147"/>
      <point x="189" y="-9"/>
    </contour>
    <contour>
      <point x="181" y="-137" type="curve"/>
      <point x="216" y="-137" type="line"/>
      <point x="229" y="-75"/>
      <point x="242" y="-12"/>
      <point x="254" y="45" type="curve"/>
      <point x="221" y="45" type="line"/>
      <point x="209" y="-10"/>
      <point x="195" y="-73"/>
    </contour>
    <contour>
      <point x="308" y="-137" type="curve"/>
      <point x="343" y="-137" type="line"/>
      <point x="353" y="-88"/>
      <point x="364" y="-35"/>
      <point x="373" y="9" type="curve"/>
      <point x="340" y="9" type="line"/>
      <point x="330" y="-37"/>
      <point x="319" y="-87"/>
    </contour>
    <contour>
      <point x="355" y="675" type="curve"/>
      <point x="388" y="675" type="line"/>
      <point x="397" y="716"/>
      <point x="407" y="762"/>
      <point x="416" y="803" type="curve"/>
      <point x="381" y="803" type="line"/>
      <point x="372" y="759"/>
      <point x="363" y="715"/>
    </contour>
    <contour>
      <point x="479" y="664" type="curve"/>
      <point x="513" y="664" type="line"/>
      <point x="523" y="710"/>
      <point x="533" y="757"/>
      <point x="543" y="803" type="curve"/>
      <point x="508" y="803" type="line"/>
      <point x="498" y="755"/>
      <point x="489" y="712"/>
    </contour>
  </outline>
</glyph>
<glyph name="dblgravecomb.case" format="2">
  <anchor x="300" y="494" name="_top"/>
  <anchor x="299" y="716" name="top"/>
  <outline>
    <contour>
      <point x="222" y="576" type="curve"/>
      <point x="255" y="577" type="line"/>
      <point x="207" y="635"/>
      <point x="160" y="694"/>
      <point x="113" y="751" type="curve"/>
      <point x="67" y="751" type="line"/>
      <point x="117" y="691"/>
      <point x="169" y="634"/>
    </contour>
    <contour>
      <point x="389" y="576" type="curve"/>
      <point x="419" y="577" type="line"/>
      <point x="377" y="635"/>
      <point x="337" y="693"/>
      <point x="297" y="751" type="curve"/>
      <point x="254" y="751" type="line"/>
      <point x="297" y="691"/>
      <point x="342" y="634"/>
    </contour>
  </outline>
</glyph>
<glyph name="dollar.BRACKET.140" format="2">
  <advance width="552"/>
  <outline>
    <contour>
      <point x="290" y="-9" type="curve" smooth="yes"/>
      <point x="438" y="-9"/>
      <point x="504" y="77"/>
      <point x="504" y="177" type="curve" smooth="yes"/>
      <point x="504" y="265"/>
      <point x="453" y="313"/>
      <point x="289" y="368" type="curve" smooth="yes"/>
      <point x="155" y="413"/>
      <point x="98" y="443"/>
      <point x="98" y="523" type="curve" smooth="yes"/>
      <point x="98" y="623"/>
      <point x="181" y="662"/>
      <point x="271" y="664" type="curve"/>
      <point x="293" y="664"/>
      <point x="378" y="637"/>
      <point x="455" y="607" type="curve"/>
      <point x="462" y="643" type="line"/>
      <point x="413" y="660"/>
      <point x="311" y="696"/>
      <point x="274" y="696" type="curve" smooth="yes"/>
      <point x="140" y="696"/>
      <point x="66" y="619"/>
      <point x="66" y="523" type="curve" smooth="yes"/>
      <point x="66" y="425"/>
      <point x="142" y="384"/>
      <point x="276" y="340" type="curve" smooth="yes"/>
      <point x="398" y="300"/>
      <point x="472" y="266"/>
      <point x="472" y="178" type="curve" smooth="yes"/>
      <point x="472" y="64"/>
      <point x="390" y="25"/>
      <point x="290" y="23" type="curve"/>
      <point x="242" y="23"/>
      <point x="166" y="48"/>
      <point x="79" y="81" type="curve"/>
      <point x="74" y="44" type="line"/>
      <point x="153" y="17"/>
      <point x="242" y="-9"/>
    </contour>
    <contour>
      <point x="264" y="-137" type="curve"/>
      <point x="298" y="-137" type="line"/>
      <point x="298" y="-88"/>
      <point x="297" y="-38"/>
      <point x="297" y="9" type="curve"/>
      <point x="265" y="9" type="line"/>
      <point x="265" y="-38"/>
      <point x="264" y="-88"/>
    </contour>
    <contour>
      <point x="265" y="675" type="curve"/>
      <point x="297" y="675" type="line"/>
      <point x="297" y="717"/>
      <point x="298" y="761"/>
      <point x="298" y="803" type="curve"/>
      <point x="264" y="803" type="line"/>
      <point x="264" y="761"/>
      <point x="265" y="717"/>
    </contour>
  </outline>
</glyph>
<glyph name="naira.BRACKET.140" format="2">
  <advance width="785"/>
  <outline>
    <contour>
      <point x="135" y="0" type="curve"/>
      <point x="171" y="0" type="line"/>
      <point x="170" y="78"/>
      <point x="169" y="145"/>
      <point x="168" y="228" type="curve"/>
      <point x="168" y="628" type="line"/>
      <point x="172" y="628" type="line"/>
      <point x="347" y="381" type="line"/>
      <point x="450" y="234"/>
      <point x="537" y="110"/>
      <point x="614" y="0" type="curve"/>
      <point x="651" y="0" type="line"/>
      <point x="650" y="78"/>
      <point x="649" y="145"/>
      <point x="648" y="228" type="curve"/>
      <point x="648" y="456" type="line"/>
      <point x="649" y="540"/>
      <point x="650" y="607"/>
      <point x="651" y="684" type="curve"/>
      <point x="615" y="684" type="line"/>
      <point x="616" y="607"/>
      <point x="616" y="540"/>
      <point x="617" y="456" type="curve"/>
      <point x="617" y="60" type="line"/>
      <point x="613" y="60" type="line"/>
      <point x="437" y="308" type="line"/>
      <point x="352" y="429"/>
      <point x="266" y="552"/>
      <point x="173" y="684" type="curve"/>
      <point x="135" y="684" type="line"/>
      <point x="136" y="607"/>
      <point x="136" y="539"/>
      <point x="137" y="456" type="curve"/>
      <point x="137" y="228" type="line"/>
      <point x="136" y="145"/>
      <point x="136" y="78"/>
    </contour>
    <contour>
      <point x="38" y="338" type="line"/>
      <point x="76" y="339"/>
      <point x="117" y="339"/>
      <point x="151" y="340" type="curve"/>
      <point x="151" y="368" type="line"/>
      <point x="117" y="369"/>
      <point x="76" y="369"/>
      <point x="38" y="370" type="curve"/>
    </contour>
    <contour>
      <point x="634" y="340" type="line"/>
      <point x="668" y="339"/>
      <point x="709" y="339"/>
      <point x="747" y="338" type="curve"/>
      <point x="747" y="370" type="line"/>
      <point x="709" y="369"/>
      <point x="668" y="369"/>
      <point x="634" y="368" type="curve"/>
    </contour>
  </outline>
</glyph>
<glyph name="ogonekcomb.a" format="2">
  <anchor x="299" y="0" name="_ogonek"/>
  <outline>
    <contour>
      <point x="281" y="-200" type="curve" smooth="yes"/>
      <point x="288" y="-200"/>
      <point x="311" y="-197"/>
      <point x="333" y="-194" type="curve"/>
      <point x="333" y="-164" type="line"/>
      <point x="322" y="-166"/>
      <point x="300" y="-169"/>
      <point x="281" y="-171" type="curve"/>
      <point x="246" y="-171"/>
      <point x="223" y="-156"/>
      <point x="223" y="-123" type="curve" smooth="yes"/>
      <point x="223" y="-80"/>
      <point x="272" y="-31"/>
      <point x="329" y="0" type="curve"/>
      <point x="311" y="21" type="line"/>
      <point x="302" y="21" type="line"/>
      <point x="302" y="10" type="line"/>
      <point x="225" y="-37"/>
      <point x="192" y="-82"/>
      <point x="192" y="-126" type="curve" smooth="yes"/>
      <point x="192" y="-172"/>
      <point x="228" y="-200"/>
    </contour>
  </outline>
</glyph>
<glyph name="seven.dnom" format="2">
  <advance width="374"/>
  <outline>
    <contour>
      <point x="89" y="0" type="curve"/>
      <point x="128" y="0" type="line"/>
      <point x="154" y="55"/>
      <point x="182" y="115"/>
      <point x="208" y="170" type="curve"/>
      <point x="255" y="268" type="line"/>
      <point x="282" y="322"/>
      <point x="310" y="380"/>
      <point x="337" y="434" type="curve"/>
      <point x="337" y="459" type="line"/>
      <point x="20" y="459" type="line"/>
      <point x="20" y="428" type="line"/>
      <point x="86" y="429"/>
      <point x="162" y="430"/>
      <point x="203" y="430" type="curve"/>
      <point x="310" y="430" type="line"/>
      <point x="303" y="438" type="line"/>
      <point x="287" y="403"/>
      <point x="270" y="367"/>
      <point x="254" y="332" type="curve"/>
      <point x="184" y="187" type="line"/>
      <point x="153" y="126"/>
      <point x="122" y="65"/>
    </contour>
  </outline>
</glyph>
<glyph name="three.dnom" format="2">
  <advance width="403"/>
  <outline>
    <contour>
      <point x="196" y="-6" type="curve" smooth="yes"/>
      <point x="304" y="-6"/>
      <point x="358" y="50"/>
      <point x="358" y="121" type="curve" smooth="yes"/>
      <point x="358" y="195"/>
      <point x="297" y="233"/>
      <point x="248" y="242" type="curve"/>
      <point x="248" y="246" type="line"/>
      <point x="296" y="257"/>
      <point x="340" y="300"/>
      <point x="340" y="358" type="curve" smooth="yes"/>
      <point x="340" y="425"/>
      <point x="280" y="467"/>
      <point x="200" y="467" type="curve" smooth="yes"/>
      <point x="168" y="467"/>
      <point x="88" y="437"/>
      <point x="50" y="423" type="curve"/>
      <point x="54" y="387" type="line"/>
      <point x="116" y="415"/>
      <point x="180" y="437"/>
      <point x="198" y="437" type="curve"/>
      <point x="265" y="436"/>
      <point x="309" y="411"/>
      <point x="309" y="355" type="curve" smooth="yes"/>
      <point x="309" y="299"/>
      <point x="264" y="257"/>
      <point x="162" y="256" type="curve"/>
      <point x="150" y="256"/>
      <point x="138" y="257"/>
      <point x="126" y="257" type="curve"/>
      <point x="126" y="226" type="line"/>
      <point x="138" y="226"/>
      <point x="150" y="227"/>
      <point x="162" y="227" type="curve"/>
      <point x="265" y="226"/>
      <point x="327" y="190"/>
      <point x="327" y="122" type="curve" smooth="yes"/>
      <point x="327" y="65"/>
      <point x="290" y="25"/>
      <point x="194" y="24" type="curve"/>
      <point x="159" y="24"/>
      <point x="105" y="43"/>
      <point x="43" y="68" type="curve"/>
      <point x="38" y="33" type="line"/>
      <point x="96" y="14"/>
      <point x="161" y="-6"/>
    </contour>
  </outline>
</glyph>
<glyph name="tildecomb.narrow" format="2">
  <anchor x="300" y="494" name="_top"/>
  <anchor x="300" y="675" name="top"/>
  <outline>
    <contour>
      <point x="373" y="588" type="curve" smooth="yes"/>
      <point x="420" y="588"/>
      <point x="449" y="627"/>
      <point x="449" y="699" type="curve"/>
      <point x="422" y="699" type="line"/>
      <point x="419" y="643"/>
      <point x="406" y="621"/>
      <point x="374" y="619" type="curve"/>
      <point x="321" y="621"/>
      <point x="292" y="712"/>
      <point x="227" y="712" type="curve" smooth="yes"/>
      <point x="180" y="712"/>
      <point x="152" y="672"/>
      <point x="152" y="601" type="curve"/>
      <point x="178" y="601" type="line"/>
      <point x="181" y="657"/>
      <point x="196" y="679"/>
      <point x="227" y="681" type="curve"/>
      <point x="280" y="679"/>
      <point x="309" y="588"/>
    </contour>
  </outline>
</glyph>
